<?xml version="1.0" encoding="UTF-8"?>
<svg width="470px" height="470px" viewBox="0 0 470 470" version="1.1" xmlns="http://www.w3.org/2000/svg" xmlns:xlink="http://www.w3.org/1999/xlink">
    <!-- Generator: Sketch 54.1 (76490) - https://sketchapp.com -->
    <title>编组</title>
    <desc>Created with Sketch.</desc>
    <defs>
        <polygon id="path-1" points="0.8842 0.1773 68.356 0.1773 68.356 128.0653 0.8842 128.0653"></polygon>
        <polygon id="path-3" points="0.802762039 0.858366099 27.5533 0.858366099 27.5533 29 0.802762039 29"></polygon>
    </defs>
    <g id="组件" stroke="none" stroke-width="1" fill="none" fill-rule="evenodd">
        <g id="编组">
            <path d="M127.3538,443.3617 C114.3078,435.1217 100.3108,428.0617 88.3788,418.4397 C35.6908,375.9507 5.3468,320.7057 0.6808,253.0837 C-5.2042,167.7977 27.1528,98.8667 94.4048,46.2557 C97.9198,43.5057 101.8018,41.2277 105.5138,38.7297 C107.4608,39.6017 109.4078,40.4727 112.2248,41.7337 C109.1168,42.6967 106.8188,42.8487 105.2918,44.0117 C102.8668,45.8577 100.7698,48.2337 98.8728,50.6507 C96.0668,54.2277 92.6688,57.7207 91.1988,61.8457 C89.9888,65.2407 88.6528,70.0927 93.4858,72.8917 C93.1388,74.1377 92.7908,75.3847 92.4428,76.6307 C90.8218,78.0327 89.2008,79.4347 87.5798,80.8367 C83.3398,85.2427 79.2378,89.7927 74.8168,94.0097 C71.3818,97.2867 68.4978,100.5177 70.4888,105.6727 C72.1958,110.0927 76.5938,112.5947 82.4768,112.5647 C84.8348,112.5527 87.1918,112.5627 90.2468,112.5627 C89.3208,114.0597 89.1158,114.4987 88.8168,114.8587 C82.9668,121.9027 74.9658,123.3827 66.4158,123.7057 C60.9598,123.9107 57.4358,127.2597 56.9458,132.1597 C56.5298,136.3107 59.3498,140.1467 64.1598,141.6047 C67.1128,142.4997 70.1648,143.0677 72.8468,143.7057 C70.4488,149.0207 68.0778,153.9247 66.0128,158.9547 C64.1378,163.5207 65.6618,167.2507 69.1588,170.5997 C70.2728,171.6667 71.0328,173.8057 70.8978,175.3617 C69.9188,186.6067 68.7948,197.8437 67.3828,209.0407 C67.1468,210.9117 65.7028,213.4457 64.1158,214.2027 C50.9208,220.4967 42.7158,230.9387 39.7658,244.8967 C33.6758,273.7087 39.0128,301.1377 52.2918,326.9947 C57.9668,338.0427 67.3668,345.2737 79.8398,348.1987 C91.9128,351.0287 103.5318,347.0437 115.3558,346.2587 C116.7538,346.1657 118.3888,344.6917 119.3158,343.4217 C121.8828,339.9057 124.1348,336.1587 126.4668,332.5707 C127.9678,334.5447 129.6228,336.7207 131.2778,338.8977 C141.3718,355.9457 155.9698,368.3487 172.0518,377.9057 C167.3998,383.0307 162.9868,387.8927 158.5728,392.7557 C153.9738,398.2707 148.5448,403.2987 144.9558,409.4067 C138.5058,420.3827 133.1608,432.0077 127.3538,443.3617" id="Fill-1" fill="#20C5FD"></path>
            <path d="M214.0923,395.3579 C229.4993,413.3729 245.5343,411.8339 258.1843,394.7259 C243.2123,398.5679 228.7113,400.5489 214.0923,395.3579 M127.3533,443.3619 C133.1603,432.0079 138.5063,420.3829 144.9553,409.4069 C148.5453,403.2979 153.9733,398.2699 158.5733,392.7559 C159.3013,394.0869 160.0293,395.4179 161.0563,397.2929 C161.7933,396.1079 162.5223,395.4809 162.5123,394.8659 C162.4383,390.4929 166.2313,388.4109 168.8233,387.0579 C174.2333,384.2339 178.6313,381.2119 179.4643,374.7629 L185.6543,374.7629 C194.6463,378.1679 203.5553,381.8179 212.6533,384.9139 C223.5603,388.6249 234.6733,391.5749 246.2523,387.7909 C256.1783,384.5469 266.2223,381.5809 275.9283,377.7629 C295.1213,370.2119 311.6693,358.8579 324.5673,342.4599 C334.6813,329.6019 341.1563,314.9249 346.7453,299.7539 C347.0043,299.0629 347.2623,298.3719 347.5213,297.6819 C347.5213,297.6819 347.4963,297.7019 347.4963,297.7019 C350.8323,294.5889 353.5273,291.2689 352.3613,286.1709 C352.1613,285.2979 353.1193,284.1599 353.5423,283.1449 C354.1623,284.1079 355.1553,285.0059 355.3363,286.0449 C356.0503,290.1419 356.5093,294.2819 357.0613,298.3889 C359.0263,298.6799 360.6433,298.9719 362.2723,299.1499 C370.2023,300.0179 372.7043,308.2259 378.9073,311.4209 C377.4413,319.9799 375.9753,328.5399 374.2323,338.7199 C381.3753,337.2299 387.4273,335.9669 393.4793,334.7049 C396.2743,338.3699 397.2973,342.2039 394.5943,346.3939 C390.9073,347.2429 387.2033,348.8609 383.5353,348.7829 C375.4793,348.6129 367.4463,347.1389 359.3943,347.0489 C353.0083,346.9769 349.1223,343.9919 346.3253,338.8629 C345.1423,336.6939 344.3203,334.3279 342.9513,331.1649 C331.3853,351.6819 315.7013,367.3949 295.7453,378.4969 C300.7203,382.4079 305.6813,385.5129 309.6623,389.5779 C325.1023,405.3469 332.1723,425.2459 336.7013,446.2929 C318.4093,455.5359 299.0333,461.5379 279.0093,465.6029 C279.8303,454.2229 274.3383,445.4729 267.1653,437.4849 C260.7503,430.3419 251.5503,431.6429 248.0543,440.5919 C246.3443,444.9689 245.9693,449.9639 245.5673,454.7279 C245.1493,459.6779 245.4293,464.6859 245.4033,469.6689 C239.8403,469.6859 234.2773,469.7039 228.7143,469.7219 C226.3063,458.1599 221.7233,447.6299 213.7693,438.7629 C208.1003,432.4439 201.6773,430.7119 195.6503,433.6849 C189.3693,436.7839 186.5693,443.1649 188.3843,451.4829 C189.4643,456.4269 191.2503,461.2169 192.7183,466.0759 C171.5933,462.1189 151.2953,455.6339 131.9833,446.1579 C130.3713,445.3669 128.8933,444.2999 127.3533,443.3619" id="Fill-3" fill="#350F45"></path>
            <path d="M426.0077,344.2336 L426.9297,342.9986 C425.9397,342.2696 424.7967,340.8106 423.9957,340.9796 C422.7347,341.2446 421.7027,342.6046 419.6507,344.2336 L426.0077,344.2336 Z M336.7007,446.2936 C332.1717,425.2466 325.1027,405.3466 309.6617,389.5776 C305.6817,385.5126 300.7207,382.4076 295.7447,378.4966 C315.7017,367.3956 331.3847,351.6816 342.9507,331.1646 C344.3207,334.3276 345.1417,336.6946 346.3247,338.8636 C349.1217,343.9916 353.0087,346.9766 359.3947,347.0486 C367.4467,347.1386 375.4797,348.6126 383.5347,348.7826 C387.2037,348.8606 390.9067,347.2426 394.5947,346.3936 C395.3807,346.1716 396.2017,346.0336 396.9457,345.7146 C406.9447,341.4226 413.4147,333.4706 418.8857,324.4906 C421.7707,324.4946 423.0457,325.8976 422.6127,328.7826 C421.9457,329.4486 421.2777,330.1146 420.6107,330.7806 C419.9447,331.4476 419.2787,332.1156 418.6127,332.7826 C418.0927,333.1926 417.5727,333.6036 417.0527,334.0136 C417.5727,334.2696 418.0927,334.5256 418.6117,334.7816 C417.3327,337.7976 416.0537,340.8126 414.7747,343.8286 C415.1307,344.0646 415.4867,344.3016 415.8427,344.5376 C417.3967,342.7716 418.8687,340.9216 420.5357,339.2696 C421.5347,338.2786 422.8347,337.5916 424.0047,336.7756 C425.0687,336.0336 426.1397,335.3016 427.2087,334.5646 C425.9977,333.9726 424.8337,333.2246 423.5597,332.8396 C422.6537,332.5666 421.5997,332.7836 420.6117,332.7816 C420.6127,332.1156 420.6127,331.4486 420.6127,330.7826 C421.2787,330.1156 421.9447,329.4476 422.6107,328.7806 C425.2037,329.8726 428.3367,330.3816 430.2777,332.1786 C434.4727,336.0626 438.0567,340.6066 441.8907,344.8816 C429.7297,369.1276 413.0697,389.9476 393.1737,408.2106 C376.2797,423.7186 357.5497,436.6006 336.7007,446.2936 L336.7007,446.2936 Z" id="Fill-5" fill="#1FC5FD"></path>
            <path d="M250.6454,0.6458 C278.2874,1.7428 304.5634,8.6938 329.6794,19.9088 C379.8214,42.2958 417.5654,78.0908 443.2414,126.5678 C446.6524,133.0078 449.1584,139.9278 452.0814,146.6248 C448.6494,145.2398 444.7044,144.5108 441.9124,142.3148 C437.7074,139.0058 434.3464,134.6348 430.5554,130.7838 C426.6494,126.8158 422.7004,122.8888 418.6874,119.0288 C416.8174,117.2308 414.8564,115.4878 412.7444,113.9928 C411.1504,112.8658 409.1894,112.2728 407.4974,111.2658 C403.5664,108.9268 399.6984,106.4818 394.3914,103.2088 L394.3914,90.0768 C390.3114,95.9458 389.0874,100.6368 392.6344,105.6528 C389.2684,106.5418 389.1564,106.5518 388.5984,100.4308 C388.3224,97.4128 388.5504,94.3498 388.5504,90.3248 C385.6704,92.7018 387.9544,98.2918 382.6474,95.7838 C382.2724,94.1308 381.8964,92.4788 381.5204,90.8268 C381.1944,83.9758 378.3614,78.3188 373.0154,74.1008 C367.5554,69.7918 361.2724,71.4518 358.3114,77.7168 C357.9894,78.3988 357.5394,79.0218 357.0424,79.8518 C354.9684,78.5238 353.2604,77.1568 351.3354,76.2558 C347.1834,74.3128 345.5604,71.4388 345.1354,66.6638 C344.7244,62.0478 342.7834,57.3098 340.5204,53.1688 C335.3884,43.7758 321.4694,35.6618 313.3944,38.0698 C308.3724,39.5668 306.0094,37.8548 302.9854,34.7798 C294.7004,26.3568 284.1234,21.5008 273.6234,16.5788 C272.3884,14.6738 270.8734,11.0288 269.9684,11.1748 C266.5854,11.7198 264.2234,10.0668 261.8554,8.5968 C257.9704,6.1858 254.3674,3.3198 250.6454,0.6458" id="Fill-7" fill="#59BCFC"></path>
            <path d="M382.6477,95.7833 C387.9547,98.2923 385.6697,92.7023 388.5507,90.3243 C388.5507,94.3493 388.3227,97.4133 388.5977,100.4313 C389.1567,106.5513 389.2687,106.5413 392.6347,105.6533 C389.0877,100.6373 390.3117,95.9463 394.3917,90.0773 L394.3917,103.2083 C399.6977,106.4813 403.5657,108.9273 407.4977,111.2663 C409.1897,112.2723 411.1507,112.8653 412.7437,113.9923 C414.8567,115.4873 416.8177,117.2303 418.6877,119.0293 C422.6997,122.8883 426.6497,126.8163 430.5557,130.7843 C434.3457,134.6343 437.7067,139.0063 441.9127,142.3143 C444.7037,144.5103 448.6497,145.2393 452.0817,146.6253 C455.6467,157.7723 459.5417,168.8273 462.6557,180.0993 C464.7937,187.8403 465.8467,195.8823 467.3837,203.7893 C463.0407,202.9753 458.1837,202.9793 457.1167,197.0803 C457.0167,196.5243 456.3387,196.0063 455.8267,195.6003 C449.2837,190.4153 442.5707,185.4293 436.2417,179.9953 C433.8917,177.9773 432.4467,174.9123 430.5607,172.3463 C429.5287,170.9423 428.6877,169.2333 427.3297,168.2633 C422.4517,164.7783 417.3907,161.5493 411.6887,157.7513 C410.8307,157.5813 408.7117,157.1623 407.6857,156.9593 C408.0627,151.5693 408.3457,147.5183 408.6127,143.7013 C406.0057,145.6073 404.1737,146.9463 402.3417,148.2833 C399.7827,143.0093 398.1477,136.9223 394.4167,132.6803 C390.2557,127.9513 384.1897,124.8983 378.4117,120.7253 C378.8097,118.6923 379.3737,115.8083 379.9367,112.9253 L379.8507,112.9963 L380.4677,110.8173 C380.7297,109.5193 380.9907,108.2223 381.2517,106.9243 C381.7177,103.2103 382.1827,99.4973 382.6477,95.7833" id="Fill-9" fill="#4EBDFC"></path>
            <g transform="translate(401.000000, 179.737000)">
                <mask id="mask-2" fill="white">
                    <use xlink:href="#path-1"></use>
                </mask>
                <g id="Clip-12"></g>
                <path d="M5.1432,7.6013 C4.6972,7.6313 4.2512,7.6613 3.8052,7.6923 C3.9582,8.6553 4.1102,9.6193 4.2632,10.5833 C4.5562,10.5413 4.8502,10.4993 5.1432,10.4573 L5.1432,7.6013 Z M25.3422,40.3093 C25.0642,39.8423 24.7862,39.3743 24.5082,38.9073 C23.5872,39.5173 22.6652,40.1273 21.7432,40.7373 C21.9622,41.0953 22.1802,41.4543 22.3992,41.8133 C23.3802,41.3113 24.3612,40.8103 25.3422,40.3093 L25.3422,40.3093 Z M13.8092,27.5293 C13.3422,27.0343 12.8762,26.5393 12.4092,26.0443 C11.4752,27.0003 10.5402,27.9573 9.6062,28.9133 C9.9692,29.2923 10.3312,29.6713 10.6942,30.0503 C11.7322,29.2093 12.7712,28.3693 13.8092,27.5293 L13.8092,27.5293 Z M19.9762,36.1063 C20.5952,35.7853 21.2142,35.4653 21.8332,35.1453 C21.2452,33.8223 20.6582,32.4993 20.0712,31.1753 C19.3082,31.5883 18.5452,32.0003 17.7822,32.4133 C18.5142,33.6443 19.2452,34.8753 19.9762,36.1063 L19.9762,36.1063 Z M3.8212,25.9773 C4.4402,26.3433 5.0592,26.7103 5.6782,27.0763 C8.8442,26.0633 7.3392,23.1713 6.2642,20.4283 C5.4502,22.2773 4.6352,24.1273 3.8212,25.9773 L3.8212,25.9773 Z M68.3562,62.0563 C67.8132,84.6513 64.1352,106.6913 56.6902,128.0653 C53.7922,126.6843 50.7182,125.5763 48.0462,123.8473 C45.2572,122.0423 42.8552,119.6393 39.6602,116.9783 C39.0562,113.5143 38.4772,108.9993 37.2912,104.6503 C37.1092,103.9823 34.0052,103.5853 32.4872,103.9753 C31.2852,104.2833 30.4412,105.9903 29.4382,107.0753 C29.4462,105.7323 29.4532,104.3893 29.4612,103.0463 C29.5052,102.3843 29.5502,101.7223 29.5942,101.0603 C31.3552,91.0653 31.7442,81.0723 29.5662,71.0823 C26.8692,63.5033 24.1732,55.9253 21.4762,48.3463 C20.6832,47.2883 19.8912,46.2303 19.0982,45.1723 C18.7082,45.1853 18.5052,44.9993 18.4882,44.6143 C18.0882,44.1233 17.6882,43.6313 17.2882,43.1403 C16.0912,42.1013 14.8942,41.0623 13.6972,40.0233 C13.5632,38.6163 13.6452,36.0703 13.2572,35.9963 C11.4442,35.6523 9.5012,35.9883 7.6042,36.0823 C7.2422,35.7993 6.8812,35.5163 6.5192,35.2333 C6.7422,34.0563 6.9642,32.8793 7.2042,31.6103 C5.2742,32.1943 3.6752,32.6783 2.0752,33.1633 C1.9512,29.7843 1.8272,26.4043 1.7032,23.0253 C1.6312,21.0163 1.5602,19.0073 1.4892,16.9973 C1.2872,15.3523 1.0862,13.7073 0.8842,12.0613 C1.3752,8.5863 1.8652,5.1103 2.4032,1.2963 C4.1912,0.9743 6.1542,0.6213 8.6132,0.1773 C8.2632,1.8643 7.9672,2.7913 7.8922,3.7353 C7.4782,8.9603 6.5022,13.9083 12.4092,17.6383 C18.3402,21.3823 22.1462,27.8953 28.8582,31.0843 C31.8592,32.5093 33.9292,35.7943 36.6142,37.9993 C44.1532,44.1903 51.7952,50.2533 59.3812,56.3863 C59.7542,56.6883 60.1632,57.1333 60.2512,57.5733 C61.1992,62.2783 64.7242,62.2503 68.3562,62.0563 L68.3562,62.0563 Z" id="Fill-11" fill="#3EBEFC" mask="url(#mask-2)"></path>
            </g>
            <path d="M469.3559,241.7937 C465.7249,241.9867 462.1999,242.0157 461.2519,237.3097 C461.1629,236.8707 460.7549,236.4247 460.3809,236.1227 C452.7949,229.9907 445.1529,223.9267 437.6149,217.7367 C434.9289,215.5307 432.8589,212.2457 429.8589,210.8207 C423.1459,207.6327 419.3399,201.1197 413.4089,197.3757 C407.5019,193.6457 408.4779,188.6977 408.8919,183.4717 C408.9669,182.5277 409.2629,181.6017 409.6139,179.9147 C407.1539,180.3577 405.1909,180.7117 403.4029,181.0337 C402.8649,184.8477 402.3749,188.3227 401.8849,191.7987 C400.7849,185.5117 399.6859,179.2257 398.5869,172.9397 C398.6449,169.5727 398.7039,166.2067 398.7619,162.8397 C399.9289,160.7887 401.0949,158.7387 402.2619,156.6877 C403.5749,155.5127 405.9199,154.4487 402.6799,152.7857 L402.3409,148.2857 C404.1729,146.9457 406.0059,145.6067 408.6129,143.7017 C408.3459,147.5187 408.0629,151.5687 407.6859,156.9587 C408.7119,157.1627 410.8309,157.5817 411.6889,157.7517 C417.3899,161.5497 422.4519,164.7787 427.3299,168.2637 C428.6869,169.2327 429.5289,170.9417 430.5599,172.3457 C432.4459,174.9127 433.8919,177.9777 436.2419,179.9957 C442.5709,185.4297 449.2829,190.4147 455.8269,195.6007 C456.3389,196.0067 457.0169,196.5237 457.1169,197.0807 C458.1839,202.9797 463.0409,202.9747 467.3839,203.7897 C468.0409,216.4577 468.6989,229.1257 469.3559,241.7937" id="Fill-13" fill="#46BEFD"></path>
            <path d="M430.4379,286.813 C431.4409,285.727 432.2849,284.021 433.4869,283.712 C435.0059,283.322 438.1089,283.719 438.2909,284.387 C439.4769,288.736 440.0569,293.251 440.6609,296.715 C443.8549,299.376 446.2569,301.78 449.0469,303.585 C451.7189,305.314 454.7929,306.422 457.6899,307.803 C452.4229,320.162 447.1569,332.521 441.8899,344.881 C438.0569,340.607 434.4729,336.062 430.2769,332.178 C428.3369,330.382 425.2029,329.873 422.6109,328.78 L422.6129,328.783 C423.0449,325.897 421.7709,324.495 418.8859,324.491 C419.1289,323.537 419.3729,322.583 419.6169,321.63 C420.6859,319.428 422.0999,317.325 422.7649,315.006 C425.4479,305.644 427.8999,296.216 430.4379,286.813" id="Fill-15" fill="#2AC1FC"></path>
            <path d="M192.718,466.076 C191.25,461.217 189.464,456.427 188.385,451.483 C186.569,443.165 189.369,436.784 195.65,433.685 C201.677,430.712 208.1,432.444 213.769,438.763 C221.724,447.63 226.307,458.159 228.714,469.722 C226.66,469.727 224.607,469.732 222.553,469.737 C218.993,459.501 214.097,449.93 205.455,443.187 C200.833,439.58 196.257,442.438 195.851,448.418 C195.308,456.412 199.488,462.323 204.696,467.725 C200.704,467.176 196.711,466.626 192.718,466.076" id="Fill-17" fill="#ECDBF5"></path>
            <path d="M93.4849,72.8928 C88.6529,70.0928 89.9889,65.2408 91.1989,61.8458 C92.6689,57.7208 96.0669,54.2278 98.8729,50.6508 C100.7699,48.2338 102.8669,45.8578 105.2919,44.0118 C106.8189,42.8488 109.1169,42.6968 112.2249,41.7338 C109.4079,40.4728 107.4609,39.6018 105.5139,38.7298 C122.1229,27.0738 140.2049,18.4328 159.5339,12.3448 C160.5669,14.0858 161.5999,15.8258 162.6329,17.5648 L161.5609,17.5168 C160.5779,17.8988 159.5939,18.2808 158.6109,18.6628 C157.6109,19.3698 156.6109,20.0768 155.6109,20.7828 C154.3239,21.9328 152.6569,22.8638 151.8439,24.2848 C150.7599,26.1778 150.3409,28.4508 149.6369,30.5608 C145.9799,31.3898 142.3229,32.2178 138.6659,33.0468 C136.4359,33.6288 134.1569,34.0678 131.9829,34.8148 C120.8279,38.6458 109.9379,42.9808 101.5119,51.7378 C100.0959,53.0978 98.5409,54.3418 97.2869,55.8378 C93.1549,60.7688 89.2859,65.8218 93.8199,72.5748 L93.4849,72.8928 Z" id="Fill-19" fill="#3EBEFC"></path>
            <path d="M162.6333,17.5652 C161.6003,15.8252 160.5673,14.0862 159.5333,12.3442 C173.5253,8.8882 187.3553,4.2672 201.5533,2.2972 C216.6143,0.2082 232.0233,0.6202 247.2833,0.0032 C248.3933,-0.0418 249.5243,0.4202 250.6453,0.6462 C254.3673,3.3202 257.9703,6.1852 261.8553,8.5962 C264.2233,10.0662 266.5853,11.7192 269.9683,11.1742 C270.8733,11.0282 272.3883,14.6742 273.6233,16.5782 C272.3053,15.9792 270.9883,15.3792 269.6713,14.7792 C269.7773,14.2792 269.8833,13.7792 269.9893,13.2782 C269.5313,13.7082 269.0733,14.1382 268.6153,14.5672 C266.6143,13.9492 264.6143,13.3302 262.6143,12.7122 C262.3013,12.2032 261.9883,11.6942 261.6753,11.1842 C261.3133,11.6412 260.9513,12.0982 260.5893,12.5552 C260.2983,12.6692 259.9963,12.7312 259.6843,12.7422 C258.7063,12.1662 257.7943,11.3002 256.7403,11.0592 C237.9143,6.7492 218.9213,4.6222 199.6133,6.9412 C198.9323,6.9762 198.2513,7.0102 197.5703,7.0452 C196.7803,7.2522 195.9903,7.4592 195.2003,7.6662 C185.7123,10.1312 176.2253,12.5962 166.7383,15.0612 C165.3703,15.8952 164.0013,16.7302 162.6333,17.5652" id="Fill-21" fill="#4EBDFC"></path>
            <path d="M245.4034,469.6685 C245.4284,464.6855 245.1494,459.6775 245.5674,454.7285 C245.9684,449.9645 246.3444,444.9685 248.0534,440.5925 C251.5504,431.6425 260.7504,430.3415 267.1654,437.4855 C274.3384,445.4725 279.8294,454.2225 279.0094,465.6035 C277.2594,465.6665 275.5094,465.7305 273.7594,465.7945 C273.9234,459.0665 272.8074,453.0155 266.7834,448.6325 C259.3184,443.2015 252.7734,445.6115 251.3984,454.8985 C250.7204,459.4825 250.8374,464.1835 250.5954,468.8315 C248.8644,469.1105 247.1344,469.3895 245.4034,469.6685" id="Fill-23" fill="#ECDBF5"></path>
            <g transform="translate(195.000000, 440.737000)">
                <mask id="mask-4" fill="white">
                    <use xlink:href="#path-3"></use>
                </mask>
                <g id="Clip-26"></g>
                <path d="M9.6963,26.9883 C4.4883,21.5863 0.3073,15.6753 0.8503,7.6803 C1.2563,1.7013 5.8333,-1.1577 10.4553,2.4493 C19.0973,9.1933 23.9933,18.7643 27.5533,29.0003 C26.0393,28.6103 24.5243,28.2203 23.0093,27.8303 C19.6053,21.7633 16.2333,15.6793 12.7673,9.6483 C12.2033,8.6683 11.3673,7.6593 10.4013,7.1403 C9.1903,6.4893 7.6523,5.9403 6.3833,6.1443 C5.8513,6.2293 5.3533,8.3553 5.3433,9.5583 C5.2923,15.3033 8.1783,19.6283 12.2653,23.3613 C13.8233,24.7843 15.1913,26.4163 16.6453,27.9523 C14.3293,27.6313 12.0123,27.3093 9.6963,26.9883" id="Fill-25" fill="#492258" mask="url(#mask-4)"></path>
            </g>
            <path d="M250.5951,468.831 C250.8381,464.183 250.7201,459.482 251.3991,454.899 C252.7731,445.611 259.3191,443.202 266.7841,448.633 C272.8071,453.015 273.9231,459.066 273.7591,465.795 C272.0821,466.001 270.4041,466.208 268.7261,466.416 C269.5441,460.944 269.4351,455.702 264.2851,452.161 C262.7561,451.11 260.1961,449.488 259.2881,450.046 C257.5901,451.09 256.0411,453.419 255.7081,455.425 C254.9791,459.812 255.0501,464.332 254.7941,468.798 C253.3951,468.809 251.9951,468.82 250.5951,468.831" id="Fill-27" fill="#492258"></path>
            <path d="M254.7944,468.7978 C255.0504,464.3318 254.9794,459.8128 255.7084,455.4258 C256.0414,453.4188 257.5904,451.0908 259.2884,450.0468 C260.1964,449.4878 262.7554,451.1098 264.2854,452.1618 C269.4354,455.7018 269.5444,460.9438 268.7264,466.4158 C264.0824,467.2098 259.4384,468.0038 254.7944,468.7978" id="Fill-29" fill="#FCC5A0"></path>
            <path d="M211.6451,468.6896 C210.1911,467.1526 208.8231,465.5216 207.2651,464.0986 C203.1781,460.3646 200.2921,456.0406 200.3431,450.2956 C200.3541,449.0926 200.8511,446.9666 201.3831,446.8806 C202.6521,446.6776 204.1901,447.2256 205.4021,447.8766 C206.3681,448.3966 207.2031,449.4046 207.7671,450.3856 C211.2331,456.4166 214.6051,462.5006 218.0091,468.5676 C215.8881,468.6086 213.7671,468.6486 211.6451,468.6896" id="Fill-31" fill="#FCC5A0"></path>
            <path d="M90.7913,127.5806 C83.1223,129.6456 76.3823,131.4596 69.3983,133.3396 C74.1223,134.4186 78.9873,135.5836 83.8863,136.5826 C84.5143,136.7106 85.6203,136.1786 85.9893,135.6146 C87.6533,133.0686 89.1303,130.4016 90.7913,127.5806 M48.8703,265.9436 C48.8623,266.3326 48.8543,266.7226 48.8473,267.1116 C49.7523,274.6936 50.1923,282.3676 51.6713,289.8366 C53.9493,301.3466 56.5083,312.8726 63.5113,322.7326 C64.1893,322.7506 64.8673,322.7676 65.5453,322.7846 C65.9603,324.3366 65.9793,326.1746 66.8563,327.3946 C72.2553,334.9066 85.1263,339.2136 94.9633,336.7426 C92.8663,326.2286 90.7163,315.6946 88.6703,305.1396 C83.7763,279.8906 78.9523,254.6286 74.0493,229.3816 C73.1873,224.9426 71.0093,223.8886 67.1563,225.9126 C58.1253,230.6566 53.3203,238.5686 50.9843,248.1436 C50.6533,249.5016 51.6143,251.1736 51.9763,252.6996 C51.1733,253.3476 50.3693,253.9956 49.5653,254.6446 C49.3343,258.4106 49.1023,262.1766 48.8703,265.9436 M131.2773,338.8976 C129.6223,336.7206 127.9673,334.5446 126.4663,332.5706 C124.1343,336.1586 121.8833,339.9056 119.3163,343.4216 C118.3883,344.6916 116.7533,346.1656 115.3563,346.2586 C103.5313,347.0436 91.9123,351.0296 79.8393,348.1986 C67.3673,345.2736 57.9663,338.0426 52.2923,326.9946 C39.0133,301.1376 33.6763,273.7086 39.7653,244.8966 C42.7153,230.9386 50.9203,220.4966 64.1163,214.2026 C65.7033,213.4456 67.1463,210.9116 67.3823,209.0406 C68.7943,197.8436 69.9193,186.6066 70.8973,175.3616 C71.0333,173.8056 70.2733,171.6666 69.1593,170.6006 C65.6623,167.2506 64.1383,163.5216 66.0133,158.9546 C68.0783,153.9246 70.4483,149.0206 72.8473,143.7056 C70.1653,143.0676 67.1133,142.4996 64.1603,141.6046 C59.3503,140.1466 56.5303,136.3106 56.9453,132.1596 C57.4363,127.2596 60.9593,123.9106 66.4153,123.7056 C74.9663,123.3826 82.9663,121.9026 88.8163,114.8586 C89.1153,114.4986 89.3203,114.0596 90.2473,112.5626 C87.1923,112.5626 84.8343,112.5526 82.4763,112.5646 C76.5943,112.5946 72.1953,110.0926 70.4883,105.6726 C68.4973,100.5176 71.3823,97.2866 74.8173,94.0096 C79.2373,89.7926 83.3403,85.2426 87.5803,80.8366 C88.4693,80.4326 89.3583,80.0286 90.2483,79.6246 C96.4583,84.5246 97.2873,76.6466 101.1353,74.0476 C100.9123,77.0576 100.7733,78.9326 100.6333,80.8076 C97.5703,84.1596 94.5953,87.5996 91.4203,90.8416 C87.8483,94.4896 84.0943,97.9596 80.4193,101.5066 C80.7173,101.9286 81.0153,102.3506 81.3133,102.7726 C83.1063,102.7726 84.8993,102.7726 86.6913,102.7736 C92.4073,102.7756 98.1243,102.8246 103.8393,102.7616 C106.6833,102.7296 110.0913,103.4396 112.2463,102.1496 C116.4133,99.6536 119.8733,95.9786 123.6263,92.7926 C125.9503,91.7776 128.2733,90.7626 130.5973,89.7486 C133.2113,92.2916 133.4663,94.0986 129.1973,94.8476 C128.2963,95.0066 126.9533,95.8926 126.8583,96.5866 C126.7363,97.4826 127.4643,98.7176 128.1853,99.4546 C129.1873,100.4766 130.5223,101.1716 131.7153,102.0056 C129.2483,103.9496 126.7483,105.8546 124.3193,107.8446 C104.2123,124.3046 91.3323,145.3486 84.5403,170.3156 C80.7723,184.1696 78.9473,198.2316 78.8223,213.1716 C82.0323,212.7206 84.7333,212.3406 88.0543,211.8736 C88.0543,207.3806 87.8493,203.2276 88.1113,199.1046 C88.3733,194.9796 88.8933,190.8456 89.6593,186.7836 C96.5773,150.1216 116.5033,123.4036 150.5033,107.5066 C150.8733,108.5986 151.2433,109.6906 151.6143,110.7826 C151.5373,110.9196 151.4603,111.0566 151.3833,111.1926 C151.4593,111.0556 151.5353,110.9176 151.6103,110.7796 C154.7923,111.7426 159.4993,109.2926 160.6423,114.8166 C157.6333,116.4826 154.6243,118.1486 151.6153,119.8136 C150.9253,120.2716 150.2663,120.7856 149.5413,121.1786 C127.0523,133.3736 111.7313,151.6796 104.6023,176.1646 C101.7723,185.8836 99.3073,196.4666 100.2453,206.3176 C101.2443,216.8176 106.4633,226.9166 109.8403,237.1906 C111.4983,234.4836 112.1763,231.8406 112.5833,229.1566 C113.8953,220.5006 116.8363,212.9166 124.8923,208.1486 C131.1163,204.4646 134.2553,198.6706 135.7073,191.6606 C137.4813,183.1006 139.1813,174.4766 141.7673,166.1456 C145.1963,155.0976 156.0253,149.2926 167.2503,151.4986 C175.0183,153.0246 182.8253,154.3486 190.6143,155.7626 C191.2783,155.7806 191.9423,155.7986 192.6063,155.8176 C193.8903,159.2326 197.0693,159.8466 202.6273,157.7516 C207.9543,158.0956 213.2813,158.4386 218.6073,158.7826 C217.3293,159.4486 216.0123,160.7486 214.7803,160.6726 C209.2333,160.3306 203.8563,161.7786 198.1403,161.1146 C191.7063,160.3666 184.9753,162.1746 178.3733,162.8706 C178.0933,163.0156 177.8413,162.9766 177.6183,162.7536 C174.9033,162.1126 172.1883,161.4726 169.4733,160.8326 C168.4793,160.7886 167.4823,160.7806 166.4913,160.6966 C156.1503,159.8196 152.6463,161.8806 149.6183,171.8666 C147.7983,177.8696 146.9603,184.1646 145.5543,190.2996 C143.3843,199.7656 141.2063,209.5906 131.9383,214.7256 C125.5123,218.2856 122.9883,223.4156 121.5323,230.0576 C119.5623,239.0456 116.9693,247.8956 114.7433,256.8286 C114.4783,257.8966 114.6873,259.1526 114.9313,260.2656 C118.4703,276.4296 122.0533,292.5836 125.6253,308.7396 C127.2783,313.7256 129.0093,318.6876 130.5533,323.7076 C131.3753,326.3796 131.8723,329.1516 132.6583,332.4806 C133.0683,332.2506 134.3323,331.5406 135.5963,330.8306 C135.8493,334.0106 136.1033,337.1906 136.3753,340.6146 C134.2453,339.8966 132.7613,339.3976 131.2773,338.8976" id="Fill-33" fill="#351046"></path>
            <path d="M131.2775,338.8974 C132.7615,339.3974 134.2455,339.8974 136.3755,340.6144 C136.1035,337.1904 135.8495,334.0114 135.5965,330.8304 C135.8785,330.8034 136.1615,330.7884 136.4455,330.7844 C140.8055,336.5814 144.8795,342.6234 149.5855,348.1234 C159.5265,359.7434 172.2695,367.7234 185.6545,374.7624 L179.4645,374.7624 C178.6315,381.2114 174.2335,384.2334 168.8235,387.0584 C166.2305,388.4114 162.4385,390.4934 162.5125,394.8654 C162.5225,395.4804 161.7935,396.1084 161.0565,397.2934 C160.0295,395.4174 159.3015,394.0864 158.5725,392.7554 C162.9865,387.8924 167.3995,383.0304 172.0515,377.9054 C155.9695,368.3484 141.3715,355.9464 131.2775,338.8974" id="Fill-35" fill="#3F1145"></path>
            <path d="M90.2473,79.6241 C89.3583,80.0281 88.4693,80.4321 87.5803,80.8361 C89.2003,79.4341 90.8213,78.0331 92.4423,76.6311 L92.5923,76.7591 C91.8103,77.7141 91.0293,78.6691 90.2473,79.6241" id="Fill-37" fill="#3EBEFC"></path>
            <path d="M92.4424,76.631 C92.7904,75.384 93.1394,74.138 93.4864,72.892 C93.4844,72.893 93.8204,72.575 93.8204,72.575 C97.4004,75.141 93.5794,75.534 92.5924,76.759 L92.4424,76.631 Z" id="Fill-39" fill="#3EBEFC"></path>
            <path d="M233.9558,286.8719 C233.9558,285.4039 234.0188,284.8949 233.9448,284.4059 C233.6098,282.1699 235.0528,278.6909 231.1508,278.8119 C230.2298,278.8409 228.7688,282.2729 228.7038,284.1789 C228.6038,287.0799 227.9948,288.8979 225.3888,290.6819 C220.6128,293.9519 218.7638,298.9869 219.8818,304.6989 C220.8368,309.5739 224.1188,312.6369 228.9838,313.4389 C230.3938,313.6719 232.0538,312.3869 233.5988,311.7979 C232.5848,310.6039 231.6298,309.3549 230.5458,308.2279 C228.7468,306.3599 225.3878,304.5849 225.3688,302.7439 C225.3418,300.0559 227.0358,295.9029 229.1598,294.9399 C233.6468,292.9049 234.4978,290.0489 233.9558,286.8719 M333.0198,237.3179 C331.3038,235.2239 330.2988,233.6259 328.9488,232.4109 C321.3418,225.5629 312.0428,224.2099 302.3828,225.0179 C293.6488,225.7489 284.8798,226.7199 276.3248,228.5289 C273.8188,229.0589 271.9948,232.8129 269.8578,235.0899 C272.0908,236.6809 274.1558,239.2129 276.5948,239.6469 C280.4098,240.3259 284.5188,239.8999 288.4318,239.3909 C302.2708,237.5889 315.9538,232.4439 330.0738,237.7809 C330.4658,237.9289 331.0188,237.6509 333.0198,237.3179 M133.6748,236.3889 C133.8858,236.8749 134.0958,237.3609 134.3068,237.8469 C136.1818,237.5169 138.0528,237.1689 139.9308,236.8609 C143.6878,236.2459 147.5408,234.8149 151.1898,235.2159 C160.1018,236.1959 168.8858,238.3149 177.7908,239.4009 C182.4888,239.9739 187.4458,239.9469 192.0798,239.0829 C196.5408,238.2529 197.3688,233.9019 193.9608,230.8099 C192.4438,229.4329 190.3078,228.3379 188.2978,227.9769 C181.5908,226.7709 174.8128,225.1799 168.0638,225.1909 C160.1928,225.2029 152.1958,226.1539 144.5068,227.8489 C140.0298,228.8349 136.0428,232.0679 133.6748,236.3889 M232.6168,373.5729 C237.7128,371.1009 243.2428,369.4029 247.5868,366.1309 C261.9468,355.3149 272.0808,340.9059 280.2178,325.0559 C281.0698,323.3979 280.7958,321.1619 281.0438,319.1929 C279.0828,319.5879 276.8638,319.5239 275.2028,320.4559 C266.8038,325.1689 258.7998,330.6479 250.1848,334.9039 C237.5738,341.1359 224.3818,344.8529 210.2318,339.7079 C209.1998,339.3329 207.1908,339.5259 206.7288,340.2019 C206.0538,341.1889 205.7748,343.2199 206.3598,344.1689 C210.7028,351.2129 214.7908,358.5179 220.0178,364.8709 C222.9958,368.4879 227.9638,370.4679 232.6168,373.5729 M171.7178,294.7459 C171.0798,294.4859 170.9078,294.3419 170.7878,294.3769 C158.7338,297.9409 146.6728,301.4829 134.6628,305.1879 C133.9938,305.3939 133.1638,307.1229 133.3828,307.8489 C135.7218,315.5869 138.2578,323.2649 140.7248,330.9139 C142.1698,330.8289 143.0418,330.9429 143.8038,330.7069 C154.7008,327.3309 165.6178,324.0109 176.4108,320.3289 C177.4648,319.9689 178.5798,317.0729 178.2208,315.7449 C176.3148,308.6989 173.9468,301.7789 171.7178,294.7459 M311.3078,247.7889 C298.8098,247.5659 288.4598,256.9189 288.3218,268.5599 C288.1908,279.5589 299.2368,291.2839 310.2788,290.6299 C321.1868,289.9839 333.1818,282.4359 333.4388,268.9869 C333.6558,257.6459 323.5368,248.0059 311.3078,247.7889 M164.4248,247.8089 C152.2038,247.7059 141.8578,257.0469 141.6888,268.3379 C141.5228,279.4239 152.5948,290.8109 163.4928,290.7639 C175.4398,290.7109 186.6228,280.3319 186.7608,269.1659 C186.9068,257.4239 176.9618,247.9149 164.4248,247.8089 M185.6548,374.7629 C172.2698,367.7229 159.5268,359.7439 149.5858,348.1239 C144.8798,342.6229 140.8058,336.5809 136.4458,330.7849 C132.8388,323.4359 129.2318,316.0879 125.6258,308.7389 C122.0528,292.5829 118.4708,276.4289 114.9308,260.2659 C114.6878,259.1529 114.4778,257.8969 114.7438,256.8289 C116.9688,247.8949 119.5628,239.0459 121.5318,230.0579 C122.9878,223.4149 125.5118,218.2859 131.9388,214.7259 C141.2068,209.5909 143.3838,199.7659 145.5538,190.2999 C146.9598,184.1649 147.7978,177.8689 149.6178,171.8659 C152.6458,161.8799 156.1498,159.8189 166.4908,160.6959 C167.4818,160.7799 168.4788,160.7889 169.4738,160.8319 C172.1888,161.4729 174.9038,162.1129 177.6188,162.7539 C177.8418,162.9769 178.0928,163.0159 178.3738,162.8709 C190.0578,164.1979 201.7408,165.5249 213.4258,166.8509 C219.4378,167.4379 225.4948,168.8029 231.4528,168.4559 C246.1938,167.5989 260.8898,165.9589 275.6038,164.6339 C276.2768,164.5549 276.9488,164.4759 277.6208,164.3979 L280.6108,163.7639 C286.5598,163.3949 292.5058,162.9849 298.4558,162.6639 C309.4648,162.0709 315.3408,166.1229 318.6568,176.7879 C319.5868,179.7799 320.1858,182.9069 320.6148,186.0169 C322.1758,197.3139 325.9108,207.6909 336.4158,213.3609 C344.4648,217.7049 347.4028,224.3009 348.5878,232.5149 C348.7498,233.6379 349.1588,234.7239 349.4538,235.8279 C349.5708,236.8249 349.6888,237.8229 349.8058,238.8209 C349.9958,239.3669 350.1848,239.9139 350.3748,240.4609 C350.7318,242.8829 350.5278,245.5789 351.5518,247.6759 C354.5758,253.8649 355.2868,260.1079 353.4178,266.6919 C351.4438,277.0279 349.4698,287.3649 347.4958,297.7019 C347.4958,297.7019 347.5218,297.6819 347.5218,297.6819 C347.2628,298.3729 347.0038,299.0629 346.7448,299.7539 C341.1558,314.9249 334.6808,329.6019 324.5678,342.4599 C311.6698,358.8579 295.1218,370.2119 275.9278,377.7629 C266.2228,381.5809 256.1778,384.5469 246.2518,387.7909 C234.6728,391.5749 223.5598,388.6249 212.6528,384.9139 C203.5558,381.8179 194.6468,378.1679 185.6548,374.7629" id="Fill-41" fill="#FCC5A0"></path>
            <path d="M393.4798,334.7045 C387.4278,335.9675 381.3758,337.2295 374.2318,338.7195 C375.9758,328.5395 377.4418,319.9805 378.9058,311.4195 C380.7828,301.8735 382.6608,292.3285 384.5388,282.7835 C387.6978,266.8255 390.8578,250.8665 394.0178,234.9085 C394.4318,233.3135 394.9008,231.7305 395.2508,230.1215 C396.4998,224.3865 397.8938,224.0465 403.2518,226.6785 C411.0378,230.5035 414.2788,237.6845 417.7908,244.7825 C417.9988,245.2695 418.2078,245.7555 418.4158,246.2425 C418.2658,246.4635 418.3048,246.6435 418.5348,246.7805 C418.5868,247.1175 418.6388,247.4535 418.6908,247.7905 C418.6748,248.4485 418.6588,249.1065 418.6438,249.7655 C416.6908,254.8415 414.0338,259.7665 412.9168,265.0195 C409.4758,281.2095 406.6238,297.5245 403.5428,313.7915 C403.4178,313.8805 403.1748,314.0035 403.1888,314.0555 C403.2568,314.3035 403.3938,314.5325 403.5068,314.7685 C403.5948,315.4115 403.6818,316.0535 403.7698,316.6955 C403.7408,318.7345 403.7128,320.7745 403.6838,322.8135 C403.6028,323.4765 403.5218,324.1385 403.4398,324.8005 C403.1768,325.4915 402.9138,326.1825 402.6508,326.8745 C399.5938,329.4845 396.5368,332.0945 393.4798,334.7045" id="Fill-43" fill="#F1E1FB"></path>
            <path d="M384.5386,282.7837 C382.6606,292.3287 380.7826,301.8737 378.9056,311.4197 C372.7036,308.2267 370.2026,300.0177 362.2716,299.1497 C360.6426,298.9717 359.0266,298.6797 357.0606,298.3887 C356.5096,294.2827 356.0506,290.1417 355.3366,286.0447 C355.1546,285.0057 354.1616,284.1077 353.5416,283.1447 C353.1186,284.1597 352.1606,285.2977 352.3606,286.1707 C353.5276,291.2687 350.8326,294.5887 347.4966,297.7017 C349.4696,287.3647 351.4436,277.0277 353.4176,266.6917 C360.4906,270.3997 367.7136,273.8587 374.5406,277.9737 C376.4756,279.1407 377.3236,282.1867 378.5336,284.4437 C378.9916,285.2977 379.0666,286.3567 379.1256,286.5857 C381.0656,285.2227 382.8026,284.0027 384.5386,282.7837" id="Fill-45" fill="#3F1145"></path>
            <path d="M403.4403,324.8005 C403.5213,324.1385 403.6033,323.4765 403.6843,322.8135 C405.3233,321.4645 407.3213,320.3695 408.5093,318.6995 C409.9703,316.6445 410.7563,314.1085 411.8343,311.7795 C412.2183,315.5575 412.6023,319.3345 412.9863,323.1115 C413.4363,323.4535 413.8863,323.7945 414.3363,324.1365 C415.0633,322.9325 415.6983,321.6615 416.5333,320.5375 C418.6403,317.7005 419.4793,318.7435 419.6173,321.6285 C419.3733,322.5825 419.1293,323.5365 418.8853,324.4915 C413.4143,333.4715 406.9443,341.4225 396.9453,345.7145 C396.2023,346.0335 395.3803,346.1715 394.5953,346.3935 C397.2973,342.2045 396.2743,338.3695 393.4793,334.7045 C396.5373,332.0945 399.5943,329.4845 402.6503,326.8745 C402.9143,326.1825 403.1773,325.4915 403.4403,324.8005" id="Fill-47" fill="#3F1145"></path>
            <path d="M214.0923,395.3579 C228.7113,400.5489 243.2123,398.5679 258.1843,394.7259 C245.5343,411.8339 229.4993,413.3729 214.0923,395.3579" id="Fill-49" fill="#FCC5A0"></path>
            <path d="M346.745,299.7534 C347.004,299.0634 347.263,298.3724 347.522,297.6814 C347.263,298.3724 347.004,299.0624 346.745,299.7534" id="Fill-51" fill="#3F1145"></path>
            <path d="M420.6119,332.7816 C421.5999,332.7836 422.6539,332.5666 423.5599,332.8396 C424.8339,333.2246 425.9979,333.9726 427.2079,334.5656 C426.1399,335.3016 425.0689,336.0336 424.0039,336.7756 C422.8349,337.5916 421.5339,338.2786 420.5359,339.2696 C418.8689,340.9216 417.3969,342.7716 415.8429,344.5376 C415.4869,344.3016 415.1309,344.0646 414.7749,343.8286 C416.0539,340.8126 417.3329,337.7976 418.6119,334.7816 C419.2789,334.1146 419.9459,333.4486 420.6129,332.7816 L420.6119,332.7816 Z" id="Fill-53" fill="#2AC1FC"></path>
            <path d="M426.0077,344.2336 L419.6507,344.2336 C421.7027,342.6046 422.7347,341.2446 423.9957,340.9796 C424.7967,340.8106 425.9397,342.2696 426.9297,342.9986 L426.0077,344.2336 Z" id="Fill-55" fill="#2AC1FC"></path>
            <path d="M422.6107,328.7803 C421.9447,329.4473 421.2787,330.1153 420.6127,330.7823 L420.6107,330.7803 C421.2777,330.1143 421.9457,329.4483 422.6127,328.7823 L422.6107,328.7803 Z" id="Fill-57" fill="#2AC1FC"></path>
            <path d="M420.6131,330.7828 C420.6131,331.4488 420.6121,332.1158 420.6121,332.7818 L420.6131,332.7818 C419.9451,332.7808 419.2781,332.7808 418.6111,332.7808 L418.6131,332.7828 C419.2791,332.1158 419.9451,331.4478 420.6111,330.7808 L420.6131,330.7828 Z" id="Fill-59" fill="#2AC1FC"></path>
            <path d="M418.6119,334.7816 C418.0919,334.5256 417.5729,334.2696 417.0529,334.0136 C417.5729,333.6036 418.0929,333.1926 418.6129,332.7826 L418.6109,332.7806 C418.6109,333.4476 418.6119,334.1146 418.6119,334.7816" id="Fill-61" fill="#2AC1FC"></path>
            <path d="M259.1187,17.3522 L259.2637,18.4732 C260.1987,18.3862 261.1337,18.2982 262.0687,18.2112 C262.0107,17.8052 261.9527,17.4002 261.8947,16.9952 C260.9697,17.1142 260.0437,17.2332 259.1187,17.3522 M269.6707,14.7792 C270.9887,15.3792 272.3057,15.9792 273.6227,16.5782 C284.1237,21.5002 294.7007,26.3562 302.9857,34.7802 C306.0087,37.8552 308.3717,39.5662 313.3937,38.0692 C321.4697,35.6622 335.3877,43.7752 340.5207,53.1692 C342.7837,57.3102 344.7247,62.0472 345.1357,66.6632 C345.5607,71.4392 347.1837,74.3132 351.3347,76.2552 C353.2607,77.1562 354.9677,78.5242 357.0417,79.8512 C357.5397,79.0222 357.9887,78.3992 358.3117,77.7162 C361.2727,71.4522 367.5557,69.7912 373.0157,74.1002 C378.3617,78.3192 381.1947,83.9752 381.5207,90.8262 C380.8847,96.3192 380.2487,101.8122 379.6127,107.3042 C380.1587,107.1772 380.7057,107.0512 381.2517,106.9242 C380.9907,108.2222 380.7297,109.5202 380.4677,110.8172 C380.2627,111.5432 380.0567,112.2702 379.8507,112.9962 C379.8507,112.9962 379.9377,112.9252 379.9347,112.9252 C377.7317,114.2642 375.5297,115.6042 372.8677,117.2242 C373.8067,120.2122 374.7847,123.3242 375.7577,126.4192 C369.5987,124.0882 369.2157,123.4422 370.9787,117.9172 C371.9187,114.9682 373.0687,112.0802 373.8677,109.0962 C374.0317,108.4822 373.0557,107.5632 372.6047,106.7852 C372.6677,86.4332 372.2817,84.7002 367.0707,82.3352 C365.5157,88.1802 365.5167,94.8052 360.1777,98.2722 C356.1567,93.7642 352.8697,89.3482 348.8307,85.7832 C345.6507,82.9782 341.4507,81.3572 337.9067,78.9172 C336.8867,78.2152 336.1377,76.5382 336.0077,75.2342 C335.6367,71.5122 336.1907,67.6322 335.3997,64.0302 C333.5877,55.7692 323.0037,46.5752 316.1197,47.4402 C321.6957,67.9152 321.7067,68.1632 316.4897,71.9062 C305.5717,43.1052 283.6477,27.5422 254.6117,20.7752 C253.2767,20.1102 251.9407,19.4452 250.6057,18.7802 C253.6317,16.7672 256.6577,14.7552 259.6837,12.7422 C259.9967,12.7312 260.2977,12.6692 260.5897,12.5552 C261.2647,12.6082 261.9397,12.6602 262.6137,12.7122 C264.6147,13.3302 266.6147,13.9492 268.6147,14.5672 C268.9667,14.6382 269.3187,14.7092 269.6707,14.7792" id="Fill-63" fill="#800645"></path>
            <path d="M381.2522,106.9241 C380.7052,107.0511 380.1592,107.1781 379.6122,107.3041 C380.2482,101.8121 380.8842,96.3191 381.5212,90.8261 C381.8962,92.4791 382.2722,94.1311 382.6482,95.7831 C382.1822,99.4971 381.7172,103.2101 381.2522,106.9241" id="Fill-65" fill="#740944"></path>
            <path d="M389.2086,139.9278 C388.7136,140.1618 388.2176,140.3968 387.7226,140.6308 C389.2386,143.9288 390.7556,147.2278 392.2716,150.5258 C392.8056,150.2728 393.3406,150.0198 393.8746,149.7658 L389.2086,139.9278 Z M372.6046,106.7848 C373.0556,107.5628 374.0316,108.4818 373.8676,109.0958 C373.0686,112.0798 371.9186,114.9678 370.9786,117.9168 C369.2156,123.4418 369.5986,124.0878 375.7576,126.4188 C374.7846,123.3248 373.8066,120.2128 372.8676,117.2238 C375.5296,115.6038 377.7316,114.2638 379.9356,112.9248 C379.3736,115.8088 378.8096,118.6918 378.4116,120.7258 C384.1896,124.8988 390.2556,127.9508 394.4166,132.6808 C398.1486,136.9228 399.7826,143.0088 402.3416,148.2838 C402.4546,149.7858 402.5676,151.2858 402.6806,152.7858 C402.5406,154.0858 402.4016,155.3868 402.2616,156.6878 C401.0956,158.7378 399.9286,160.7888 398.7616,162.8398 C398.0396,164.0448 397.2316,165.2068 396.6166,166.4638 C395.7836,168.1648 395.0996,169.9388 394.3526,171.6818 C393.8996,171.5408 393.4476,171.3998 392.9946,171.2588 C392.7396,168.7358 393.1856,165.8278 392.0626,163.7798 C390.4146,160.7738 387.6466,158.3818 385.2246,155.5768 C384.6546,155.8298 383.5046,156.3398 382.3556,156.8488 C374.6906,137.6708 363.3566,121.1568 347.2886,107.9758 C335.6936,98.4648 322.3396,92.2518 308.6056,86.6798 C305.2846,84.8788 301.9626,83.0788 298.6166,81.2648 C298.7716,81.0698 299.4276,80.2428 300.9996,78.2608 L280.2446,78.2608 C280.2726,77.9208 280.3006,77.5818 280.3286,77.2428 C283.6636,76.8358 286.9986,76.4298 289.7816,76.0908 C288.8376,72.9378 288.2196,70.8728 287.6016,68.8078 C295.2716,70.7978 302.9416,72.7868 310.6116,74.7758 C321.5006,79.9098 332.9976,84.0778 343.1046,90.4498 C353.0286,96.7058 361.5416,105.2018 370.8326,112.8458 C371.5316,110.4538 372.0686,108.6188 372.6046,106.7848 L372.6046,106.7848 Z" id="Fill-67" fill="#740944"></path>
            <path d="M379.851,112.996 C380.057,112.27 380.262,111.544 380.468,110.817 C380.262,111.544 380.057,112.27 379.851,112.996" id="Fill-69" fill="#740944"></path>
            <path d="M417.7907,244.7829 C414.2787,237.6849 411.0377,230.5039 403.2517,226.6789 C397.8937,224.0459 396.4997,224.3869 395.2517,230.1219 C394.9007,231.7309 394.4317,233.3139 394.0177,234.9089 C392.8887,236.9829 391.6677,239.0139 390.6687,241.1479 C390.1527,242.2519 390.0277,243.5379 389.5917,245.2779 C387.6637,242.9409 385.9607,239.9279 385.2367,240.1469 C378.5997,242.1579 375.9467,236.0869 373.8357,233.0039 C371.0047,228.8709 368.3037,226.4219 363.6057,225.7869 C367.5397,217.2049 369.8327,208.3189 368.6267,198.7809 C371.6627,199.5049 374.6737,200.4029 377.7497,200.8639 C378.8917,201.0349 380.1867,200.1829 381.4127,199.7979 C381.7367,203.7319 382.0607,207.6649 382.4477,212.3529 C385.3427,210.9189 388.6797,216.0429 390.9227,210.7069 C391.0177,210.6269 391.2037,210.5249 391.1907,210.4689 C391.1427,210.2599 391.0297,210.0659 390.9417,209.8669 C390.8767,205.5069 390.8117,201.1469 390.7467,196.7869 C395.7407,195.5499 394.7287,200.9749 397.7797,203.4149 C398.3347,200.8439 399.1177,198.9089 399.1077,196.9779 C399.0647,188.9639 398.7817,180.9519 398.5867,172.9389 C399.6857,179.2259 400.7857,185.5119 401.8847,191.7979 C402.0857,193.4439 402.2877,195.0889 402.4897,196.7349 C402.5607,198.7439 402.6317,200.7529 402.7027,202.7619 C402.8267,206.1419 402.9507,209.5209 403.0757,212.9009 C404.5577,213.5909 406.0387,214.2809 407.5187,214.9699 C407.8807,215.2529 408.2427,215.5359 408.6047,215.8189 C410.6347,217.1329 412.6657,218.4469 414.6967,219.7599 C415.8937,220.7989 417.0907,221.8379 418.2877,222.8769 C418.6887,223.3679 419.0887,223.8599 419.4887,224.3519 C419.5047,224.7369 419.7077,224.9229 420.0987,224.9099 C420.8917,225.9679 421.6837,227.0259 422.4767,228.0839 C425.1727,235.6619 427.8697,243.2409 430.5657,250.8189 C430.5777,253.6509 430.5987,256.4829 430.5997,259.3149 C430.6027,266.4759 430.5967,273.6359 430.5947,280.7969 C430.5497,281.4589 430.5057,282.1209 430.4607,282.7829 C425.9637,284.4159 424.1107,279.5689 420.6097,278.7609 C420.3607,270.7749 420.1117,262.7879 419.8627,254.8009 C419.4627,254.5139 419.0637,254.2269 418.6647,253.9409 C418.6577,252.5489 418.6507,251.1569 418.6437,249.7649 C418.6587,249.1069 418.6747,248.4489 418.6907,247.7899 C418.6387,247.4539 418.5867,247.1169 418.5347,246.7809 C418.3047,246.6429 418.2657,246.4639 418.4167,246.2419 C418.2077,245.7549 417.9997,245.2689 417.7907,244.7829" id="Fill-71" fill="#580A44"></path>
            <path d="M418.2355,316.0574 C418.1255,315.7764 418.0815,315.3444 417.8855,315.2584 C417.6905,315.1724 417.3425,315.4334 417.0615,315.5414 C417.1715,315.8224 417.2135,316.2534 417.4105,316.3414 C417.6045,316.4284 417.9535,316.1684 418.2355,316.0574 M420.6095,278.7604 C424.1115,279.5684 425.9635,284.4154 430.4605,282.7824 C430.4535,284.1254 430.4455,285.4694 430.4385,286.8124 C427.9005,296.2164 425.4475,305.6444 422.7645,315.0064 C422.0995,317.3244 420.6855,319.4284 419.6165,321.6294 C419.4785,318.7434 418.6395,317.7004 416.5335,320.5374 C415.6985,321.6614 415.0625,322.9324 414.3365,324.1364 C413.8865,323.7944 413.4365,323.4534 412.9865,323.1114 C412.6025,319.3344 412.2185,315.5574 411.8345,311.7804 C414.4295,300.7804 417.0255,289.7804 419.6205,278.7804 C419.9505,278.7844 420.2805,278.7774 420.6095,278.7604" id="Fill-73" fill="#490E46"></path>
            <path d="M430.5943,280.797 C430.5963,273.636 430.6023,266.476 430.5993,259.315 C430.5983,256.483 430.5773,253.651 430.5663,250.819 C432.7443,260.81 432.3553,270.803 430.5943,280.797" id="Fill-75" fill="#490E46"></path>
            <path d="M414.6972,219.7604 C412.6662,218.4464 410.6352,217.1324 408.6042,215.8194 C410.5012,215.7254 412.4442,215.3884 414.2572,215.7334 C414.6452,215.8074 414.5632,218.3534 414.6972,219.7604" id="Fill-77" fill="#46BEFD"></path>
            <path d="M404.8207,205.7139 C405.6357,203.8639 406.4497,202.0149 407.2647,200.1649 C408.3387,202.9079 409.8437,205.8009 406.6777,206.8139 C406.0587,206.4469 405.4397,206.0809 404.8207,205.7139" id="Fill-79" fill="#46BEFD"></path>
            <path d="M420.9763,215.8429 C420.2453,214.6119 419.5133,213.3809 418.7823,212.1499 C419.5453,211.7369 420.3083,211.3249 421.0713,210.9129 C421.6583,212.2359 422.2453,213.5589 422.8323,214.8819 C422.2143,215.2029 421.5953,215.5229 420.9763,215.8429" id="Fill-81" fill="#46BEFD"></path>
            <path d="M414.8091,207.266 C413.7711,208.106 412.7321,208.947 411.6941,209.787 C411.3311,209.408 410.9691,209.029 410.6061,208.651 C411.5401,207.694 412.4751,206.738 413.4091,205.781 C413.8761,206.276 414.3421,206.771 414.8091,207.266" id="Fill-83" fill="#46BEFD"></path>
            <path d="M407.5191,214.97 C406.0381,214.28 404.5581,213.591 403.0761,212.901 C404.6751,212.416 406.2741,211.931 408.2041,211.347 C407.9641,212.616 407.7421,213.793 407.5191,214.97" id="Fill-85" fill="#46BEFD"></path>
            <path d="M426.3419,220.0464 C425.3609,220.5474 424.3799,221.0484 423.3989,221.5494 C423.1799,221.1914 422.9619,220.8324 422.7429,220.4744 C423.6649,219.8644 424.5869,219.2534 425.5089,218.6434 C425.7859,219.1114 426.0639,219.5784 426.3419,220.0464" id="Fill-87" fill="#46BEFD"></path>
            <path d="M406.1432,187.3383 L406.1432,190.1943 C405.8502,190.2363 405.5562,190.2783 405.2632,190.3203 C405.1102,189.3563 404.9582,188.3923 404.8052,187.4293 C405.2512,187.3983 405.6972,187.3683 406.1432,187.3383" id="Fill-89" fill="#46BEFD"></path>
            <path d="M402.7029,202.762 C402.6319,200.753 402.5609,198.744 402.4889,196.735 C402.5599,198.744 402.6319,200.753 402.7029,202.762" id="Fill-91" fill="#46BEFD"></path>
            <path d="M422.4763,228.0836 C421.6843,227.0256 420.8923,225.9686 420.0993,224.9096 C420.8913,225.9676 421.6833,227.0256 422.4763,228.0836" id="Fill-93" fill="#46BEFD"></path>
            <path d="M419.4887,224.3516 C419.0887,223.8596 418.6887,223.3686 418.2877,222.8766 C418.6877,223.3686 419.0887,223.8596 419.4887,224.3516" id="Fill-95" fill="#46BEFD"></path>
            <path d="M398.587,172.9394 C398.782,180.9524 399.064,188.9644 399.108,196.9774 C399.118,198.9084 398.335,200.8444 397.779,203.4144 C394.729,200.9744 395.74,195.5504 390.747,196.7874 C390.477,194.4374 390.207,192.0874 389.937,189.7364 C390.829,188.7514 391.721,187.7664 392.613,186.7804 C392.774,188.2994 392.935,189.8174 393.096,191.3364 C393.713,191.0794 394.33,190.8224 394.947,190.5654 C394.168,189.3044 393.389,188.0434 392.611,186.7824 C391.458,185.4134 390.305,184.0444 389.152,182.6754 C386.886,174.0664 384.621,165.4584 382.355,156.8494 C383.505,156.3394 384.655,155.8294 385.224,155.5764 C387.646,158.3824 390.415,160.7744 392.063,163.7804 C393.185,165.8284 392.739,168.7354 392.995,171.2584 C393.447,171.3994 393.9,171.5404 394.352,171.6814 C395.1,169.9394 395.784,168.1654 396.616,166.4644 C397.231,165.2074 398.04,164.0444 398.762,162.8404 C398.704,166.2064 398.645,169.5734 398.587,172.9394" id="Fill-97" fill="#6A0842"></path>
            <path d="M402.2619,156.6874 C402.4009,155.3864 402.5409,154.0864 402.6799,152.7854 C405.9199,154.4484 403.5749,155.5124 402.2619,156.6874" id="Fill-99" fill="#4EBDFC"></path>
            <path d="M92.592,76.7593 C93.579,75.5343 97.401,75.1413 93.82,72.5753 C89.286,65.8223 93.155,60.7683 97.287,55.8383 C98.541,54.3423 100.095,53.0973 101.512,51.7373 C103.884,51.7373 106.256,51.7373 109.585,51.7373 C109.845,52.1293 110.724,53.4513 111.603,54.7743 C108.722,57.7963 105.841,60.8173 102.959,63.8393 C116.227,60.4423 129.044,59.7813 142.172,62.2123 C140.317,62.7333 138.462,63.2533 136.607,63.7733 C125.136,65.2893 115.618,70.9873 106.611,77.7803 C104.619,78.7893 102.626,79.7983 100.634,80.8083 C100.773,78.9323 100.912,77.0573 101.135,74.0483 C97.288,76.6473 96.458,84.5243 90.248,79.6243 C91.029,78.6693 91.81,77.7143 92.592,76.7593" id="Fill-101" fill="#3F1145"></path>
            <path d="M162.6333,17.5652 C164.0013,16.7302 165.3703,15.8952 166.7373,15.0612 C167.6983,17.6392 168.6593,20.2182 169.6203,22.7962 C168.0833,24.1122 166.5473,25.4282 164.5733,27.1182 C166.8703,27.7592 168.7373,28.1592 170.5183,28.7972 C176.9003,31.0842 183.2523,33.4512 189.6163,35.7872 C188.7253,36.1162 187.8473,36.6892 186.9413,36.7362 C179.2013,37.1402 171.4453,37.2902 163.7183,37.8532 C159.9863,38.1252 156.3073,39.1202 152.6043,39.7882 C151.9373,39.7932 151.2693,39.7982 150.6023,39.8042 C150.2763,39.7932 149.9493,39.7942 149.6233,39.8062 C147.9483,40.1332 146.2723,40.4612 144.5973,40.7892 L147.7243,35.8942 C147.4253,35.4382 147.1273,34.9822 146.8283,34.5262 C142.7693,38.8792 140.9313,35.1892 138.6663,33.0472 C142.3233,32.2182 145.9803,31.3892 149.6363,30.5602 C151.0433,30.3112 152.4503,30.0622 153.3403,29.9052 C154.1963,26.4652 154.9043,23.6242 155.6113,20.7832 C156.6113,20.0762 157.6113,19.3702 158.6113,18.6632 C159.5943,18.2812 160.5773,17.8982 161.5613,17.5162 L162.6333,17.5652 Z" id="Fill-103" fill="#580A44"></path>
            <path d="M138.6662,33.0469 C140.9312,35.1899 142.7692,38.8789 146.8282,34.5259 C147.1272,34.9819 147.4262,35.4379 147.7242,35.8939 C146.6822,37.5259 145.6402,39.1569 144.5972,40.7889 C132.9192,43.8469 121.7382,48.0749 111.6032,54.7739 C110.7242,53.4519 109.8452,52.1289 109.5852,51.7369 C106.2562,51.7369 103.8842,51.7369 101.5122,51.7369 C109.9372,42.9809 120.8282,38.6449 131.9822,34.8149 C134.1562,34.0679 136.4352,33.6279 138.6662,33.0469" id="Fill-105" fill="#490E46"></path>
            <path d="M155.6114,20.7831 C154.9044,23.6241 154.1964,26.4651 153.3404,29.9051 C152.4504,30.0621 151.0434,30.3121 149.6364,30.5611 C150.3414,28.4511 150.7604,26.1771 151.8434,24.2841 C152.6574,22.8641 154.3244,21.9321 155.6114,20.7831" id="Fill-107" fill="#4EBDFC"></path>
            <path d="M161.5611,17.5163 C160.5781,17.8983 159.5941,18.2813 158.6111,18.6633 C159.5941,18.2813 160.5781,17.8983 161.5611,17.5163" id="Fill-109" fill="#4EBDFC"></path>
            <path d="M259.6838,12.742 C256.6578,14.755 253.6318,16.768 250.6058,18.781 C242.2748,17.781 233.9428,16.781 225.6118,15.782 C219.6148,15.454 213.6178,15.127 207.6198,14.8 C207.1168,12.933 206.6128,11.067 206.3398,10.055 C203.6488,8.809 201.6308,7.875 199.6138,6.942 C218.9208,4.622 237.9148,6.75 256.7398,11.059 C257.7948,11.301 258.7058,12.167 259.6838,12.742" id="Fill-111" fill="#740944"></path>
            <path d="M171.7906,16.7945 C171.5166,17.2195 171.0596,17.6385 171.1396,17.8775 C171.2486,18.2035 171.9316,18.6735 172.0786,18.5875 C172.4986,18.3405 172.7736,17.8445 173.1056,17.4465 C172.7156,17.2535 172.3256,17.0595 171.7906,16.7945 M199.6136,6.9415 C201.6306,7.8755 203.6486,8.8095 206.3396,10.0545 C206.6126,11.0675 207.1166,12.9335 207.6206,14.7995 C206.2276,15.1265 204.8456,15.5145 203.4406,15.7715 C197.8356,16.7965 192.2236,17.7805 186.6146,18.7805 C185.0196,19.0475 183.3986,19.2115 181.8326,19.6005 C177.7486,20.6135 173.6896,21.7245 169.6206,22.7965 C168.6596,20.2185 167.6986,17.6395 166.7376,15.0605 C176.2256,12.5965 185.7126,10.1315 195.2016,7.6665 C195.9926,7.4585 196.7816,7.2515 197.5706,7.0445 C198.2516,7.0105 198.9326,6.9755 199.6136,6.9415" id="Fill-113" fill="#6A0842"></path>
            <path d="M262.614,12.7121 C261.939,12.6601 261.265,12.6081 260.59,12.5561 C260.951,12.0991 261.313,11.6421 261.675,11.1851 C261.988,11.6941 262.301,12.2031 262.614,12.7121" id="Fill-115" fill="#59BCFC"></path>
            <path d="M269.6711,14.7794 C269.3191,14.7084 268.9671,14.6384 268.6151,14.5674 C269.0731,14.1374 269.5311,13.7084 269.9891,13.2784 C269.8831,13.7784 269.7771,14.2794 269.6711,14.7794" id="Fill-117" fill="#59BCFC"></path>
            <path d="M197.5706,7.0449 C196.7816,7.2519 195.9926,7.4589 195.2016,7.6659 C195.9906,7.4589 196.7806,7.2519 197.5706,7.0449" id="Fill-119" fill="#740944"></path>
            <path d="M382.3553,156.8492 C384.6213,165.4582 386.8863,174.0662 389.1553,182.6752 C389.1703,182.8722 389.2603,183.0242 389.4283,183.1302 L389.5743,184.9092 C389.6953,186.5182 389.8163,188.1272 389.9373,189.7372 C390.2073,192.0872 390.4773,194.4372 390.7473,196.7872 C390.8113,201.1472 390.8763,205.5072 390.9413,209.8662 C390.7193,210.1412 390.7123,210.4212 390.9223,210.7072 C388.6793,216.0422 385.3423,210.9182 382.4473,212.3532 C382.0613,207.6652 381.7363,203.7322 381.4123,199.7982 C380.8033,195.0532 380.5103,190.2412 379.5353,185.5712 C370.9013,144.1992 345.9483,117.1332 306.6023,102.7792 L300.6183,100.7722 L300.6213,100.7732 C298.6143,100.1522 296.6083,99.5302 294.6013,98.9082 C294.3303,98.7372 294.0373,98.6802 293.7223,98.7382 C292.0853,98.2222 290.4483,97.7062 288.8113,97.1902 C282.5293,96.3242 276.2473,95.4592 269.9653,94.5922 C263.5233,93.7042 257.0803,92.8142 250.6373,91.9252 C239.6343,91.9192 228.6313,91.9122 217.6293,91.9052 C214.5953,92.1122 211.5613,92.3202 208.5283,92.5272 L203.5933,93.0392 C203.2713,92.8602 202.9573,92.8722 202.6503,93.0762 C198.7533,93.6492 194.8443,94.1482 190.9633,94.8092 C176.9043,97.2062 163.2353,100.8692 150.5033,107.5062 C116.5033,123.4032 96.5773,150.1212 89.6593,186.7842 C88.8933,190.8462 88.3733,194.9802 88.1113,199.1042 C87.8493,203.2272 88.0543,207.3802 88.0543,211.8732 C84.7333,212.3402 82.0323,212.7202 78.8223,213.1712 C78.9473,198.2312 80.7723,184.1692 84.5403,170.3162 C91.3323,145.3482 104.2123,124.3052 124.3193,107.8442 C126.7483,105.8552 129.2473,103.9502 131.7153,102.0062 C138.6783,98.1992 145.6413,94.3922 152.6043,90.5852 C159.3003,88.2642 165.8623,85.3862 172.7213,83.7472 C184.1053,81.0282 195.6793,79.1052 207.1723,76.8472 L218.9783,75.9582 C229.4813,76.0262 239.9833,76.0942 250.4863,76.1622 C258.5693,78.0852 266.9633,76.4362 275.0943,78.6512 C286.1713,81.6692 297.4273,84.0342 308.6053,86.6802 C322.3393,92.2522 335.6933,98.4642 347.2883,107.9762 C363.3573,121.1572 374.6903,137.6712 382.3553,156.8492" id="Fill-121" fill="#F1DFF8"></path>
            <path d="M190.6145,155.7631 C182.8255,154.3491 175.0175,153.0251 167.2505,151.4991 C156.0255,149.2931 145.1965,155.0981 141.7675,166.1461 C139.1815,174.4771 137.4815,183.1011 135.7075,191.6601 C134.2545,198.6701 131.1165,204.4651 124.8925,208.1481 C116.8365,212.9161 113.8955,220.5011 112.5835,229.1571 C112.1765,231.8411 111.4985,234.4831 109.8405,237.1901 C106.4635,226.9161 101.2445,216.8171 100.2445,206.3171 C99.3075,196.4671 101.7725,185.8831 104.6025,176.1641 C111.7315,151.6801 127.0525,133.3741 149.5415,121.1791 C150.2665,120.7851 150.9255,120.2711 151.6155,119.8131 C152.2165,120.8411 152.5745,122.2201 153.4615,122.8351 C156.7135,125.0891 160.2795,126.8981 163.4765,129.2201 C172.4955,135.7751 178.3025,145.8431 187.9635,151.7691 C189.1995,152.5261 189.7475,154.4041 190.6145,155.7631" id="Fill-123" fill="#492258"></path>
            <path d="M51.9767,252.7 C51.6137,251.174 50.6527,249.501 50.9837,248.144 C53.3197,238.568 58.1257,230.657 67.1557,225.913 C71.0097,223.889 73.1867,224.942 74.0487,229.381 C78.9517,254.629 83.7767,279.891 88.6707,305.14 C90.7157,315.695 92.8657,326.229 94.9627,336.743 C85.1267,339.213 72.2557,334.907 66.8567,327.394 C65.9797,326.174 65.9607,324.337 65.5447,322.785 C64.0387,309.852 63.2107,296.792 60.8167,284.025 C58.8247,273.404 54.9937,263.128 51.9767,252.7" id="Fill-125" fill="#F1E1FB"></path>
            <path d="M190.6145,155.7631 C189.7475,154.4041 189.1995,152.5261 187.9635,151.7691 C178.3025,145.8431 172.4955,135.7751 163.4765,129.2201 C160.2795,126.8981 156.7135,125.0891 153.4615,122.8351 C152.5745,122.2201 152.2165,120.8411 151.6155,119.8131 C154.6245,118.1481 157.6335,116.4831 160.6415,114.8171 C166.6325,113.1411 172.6235,111.4661 178.6145,109.7901 C181.0015,112.5131 183.1485,115.5041 185.8305,117.8951 C190.0765,121.6801 194.8015,124.9241 199.0935,128.6601 C202.1255,131.2991 204.2795,135.5401 207.7065,136.9991 C213.9425,139.6551 217.6905,144.3231 221.4435,149.3781 C222.6695,151.0301 224.2965,152.3871 225.7585,153.8611 C227.7035,155.8201 229.6665,157.7621 231.6215,159.7111 C227.2835,159.4011 222.9455,159.0921 218.6075,158.7831 C213.2805,158.4391 207.9545,158.0951 202.6275,157.7521 C199.2875,157.1071 195.9465,156.4621 192.6065,155.8171 C191.9425,155.7991 191.2785,155.7811 190.6145,155.7631" id="Fill-127" fill="#522258"></path>
            <path d="M178.6146,109.7905 C172.6236,111.4655 166.6326,113.1405 160.6416,114.8165 C159.4996,109.2925 154.7916,111.7425 151.6106,110.7795 L151.6136,110.7835 C151.2436,109.6905 150.8736,108.5985 150.5026,107.5065 C163.2346,100.8685 176.9036,97.2065 190.9636,94.8095 C194.8446,94.1475 198.7536,93.6495 202.6506,93.0755 C202.9646,93.0635 203.2786,93.0515 203.5936,93.0395 C205.2386,92.8685 206.8826,92.6975 208.5276,92.5275 C209.9696,93.2415 211.3546,94.3975 212.8646,94.5945 C219.6356,95.4745 226.4406,96.0915 233.2356,96.7795 C234.8426,96.9425 236.4596,97.0085 238.2456,97.1315 C235.6276,99.3545 233.6136,101.0645 231.5986,102.7745 C228.2646,103.1075 224.9296,103.4405 221.5956,103.7725 L218.6196,103.7885 C216.9506,103.7955 215.2826,103.8015 213.6136,103.8085 C211.4856,104.0105 209.3296,104.0595 207.2346,104.4395 C197.6846,106.1725 188.1526,107.9985 178.6146,109.7905" id="Fill-129" fill="#490E46"></path>
            <path d="M106.6113,77.7806 C115.6183,70.9866 125.1363,65.2896 136.6073,63.7736 C135.3143,68.1676 136.4613,70.9076 140.9993,72.9956 C143.7143,74.2446 148.8443,73.3746 148.6133,78.7986 C147.6013,79.7836 146.5903,80.7696 145.5783,81.7556 C140.5843,84.4196 135.5903,87.0846 130.5973,89.7486 C128.2733,90.7626 125.9503,91.7776 123.6263,92.7926 C115.2063,91.8156 120.5033,86.1646 120.6343,81.7246 C115.7683,82.0636 111.4803,82.3626 106.8963,82.6826 C106.7803,80.6826 106.6953,79.2316 106.6113,77.7806" id="Fill-131" fill="#522258"></path>
            <path d="M106.6113,77.7806 C106.6953,79.2316 106.7803,80.6826 106.8963,82.6826 C111.4803,82.3626 115.7683,82.0636 120.6343,81.7246 C120.5033,86.1646 115.2063,91.8156 123.6263,92.7926 C119.8733,95.9786 116.4133,99.6536 112.2463,102.1496 C110.0913,103.4396 106.6833,102.7296 103.8393,102.7616 C98.1243,102.8246 92.4073,102.7756 86.6913,102.7736 C84.8993,102.7726 83.1063,102.7726 81.3133,102.7726 C81.0153,102.3506 80.7173,101.9286 80.4193,101.5066 C84.0943,97.9596 87.8483,94.4896 91.4203,90.8416 C94.5953,87.5996 97.5703,84.1596 100.6333,80.8076 C102.6263,79.7986 104.6193,78.7896 106.6113,77.7806" id="Fill-133" fill="#492258"></path>
            <path d="M63.5117,322.7331 C56.5077,312.8731 53.9497,301.3471 51.6707,289.8361 C50.1927,282.3681 49.7527,274.6941 48.8467,267.1111 C48.9377,266.9921 49.1167,266.8621 49.1037,266.7551 C49.0717,266.4791 48.9537,266.2131 48.8697,265.9431 C49.1017,262.1771 49.3337,258.4101 49.5657,254.6441 C50.5077,256.0541 51.8447,257.3431 52.3217,258.8951 C54.1197,264.7441 56.2037,270.5891 57.1497,276.5971 C59.5657,291.9291 61.4277,307.3491 63.5117,322.7331" id="Fill-135" fill="#ECDBF5"></path>
            <path d="M218.6076,158.7828 C222.9456,159.0918 227.2836,159.4018 231.6216,159.7118 C232.6156,159.7148 233.6086,159.7168 234.6026,159.7198 C235.9396,159.7378 237.2766,159.7568 238.6126,159.7758 C238.4886,163.6158 240.3376,165.1228 244.1446,164.8368 C246.4086,164.6668 248.7126,165.0328 250.9986,165.1578 C250.9686,165.7228 250.9386,166.2868 250.9076,166.8518 L213.4246,166.8518 C201.7416,165.5248 190.0576,164.1978 178.3736,162.8708 C184.9746,162.1748 191.7066,160.3668 198.1406,161.1148 C203.8556,161.7788 209.2336,160.3308 214.7796,160.6728 C216.0126,160.7488 217.3296,159.4488 218.6076,158.7828" id="Fill-137" fill="#3F1145"></path>
            <path d="M130.5969,89.7484 C135.5909,87.0844 140.5849,84.4204 145.5789,81.7564 C147.9209,84.6994 150.2629,87.6424 152.6039,90.5854 C145.6409,94.3924 138.6779,98.1994 131.7149,102.0064 C130.5229,101.1714 129.1869,100.4764 128.1859,99.4544 C127.4639,98.7174 126.7359,97.4834 126.8579,96.5864 C126.9529,95.8924 128.2959,95.0064 129.1969,94.8484 C133.4659,94.0984 133.2119,92.2914 130.5969,89.7484" id="Fill-139" fill="#3F1145"></path>
            <path d="M63.5117,322.7331 C61.4277,307.3491 59.5657,291.9291 57.1497,276.5971 C56.2037,270.5891 54.1197,264.7441 52.3217,258.8951 C51.8447,257.3431 50.5077,256.0541 49.5657,254.6441 C50.3697,253.9961 51.1727,253.3481 51.9767,252.7001 C54.9937,263.1281 58.8247,273.4041 60.8167,284.0251 C63.2107,296.7911 64.0387,309.8521 65.5447,322.7851 C64.8677,322.7681 64.1897,322.7501 63.5117,322.7331" id="Fill-141" fill="#492258"></path>
            <path d="M90.7913,127.5806 C89.1303,130.4016 87.6533,133.0686 85.9893,135.6146 C85.6203,136.1786 84.5143,136.7106 83.8863,136.5826 C78.9873,135.5836 74.1223,134.4186 69.3983,133.3396 C76.3823,131.4596 83.1223,129.6456 90.7913,127.5806" id="Fill-143" fill="#492258"></path>
            <path d="M125.6255,308.7393 C129.2325,316.0873 132.8385,323.4363 136.4455,330.7843 C136.1615,330.7883 135.8785,330.8033 135.5965,330.8303 C134.3325,331.5413 133.0675,332.2513 132.6585,332.4803 C131.8725,329.1513 131.3745,326.3803 130.5535,323.7083 C129.0095,318.6883 127.2785,313.7253 125.6255,308.7393" id="Fill-145" fill="#490E46"></path>
            <path d="M192.6065,155.8171 C195.9465,156.4621 199.2875,157.1071 202.6275,157.7521 C197.0695,159.8461 193.8895,159.2321 192.6065,155.8171" id="Fill-147" fill="#3F1145"></path>
            <path d="M177.6187,162.7535 C174.9037,162.1135 172.1887,161.4725 169.4737,160.8325 C172.1887,161.4725 174.9037,162.1135 177.6187,162.7535" id="Fill-149" fill="#3F1145"></path>
            <path d="M151.6104,110.7796 C151.5344,110.9176 151.4594,111.0556 151.3834,111.1926 C151.4604,111.0566 151.5374,110.9196 151.6134,110.7826 C151.6134,110.7826 151.6104,110.7796 151.6104,110.7796" id="Fill-151" fill="#490E46"></path>
            <path d="M48.8699,265.9435 C48.9539,266.2135 49.0709,266.4795 49.1039,266.7555 C49.1169,266.8625 48.9379,266.9925 48.8469,267.1115 C48.8549,266.7225 48.8619,266.3325 48.8699,265.9435" id="Fill-153" fill="#5B2158"></path>
            <path d="M363.6053,225.787 C368.3033,226.422 371.0053,228.871 373.8353,233.004 C375.9463,236.086 378.5993,242.158 385.2373,240.147 C385.9603,239.928 387.6643,242.941 389.5913,245.278 C390.0273,243.538 390.1523,242.251 390.6683,241.148 C391.6683,239.014 392.8883,236.983 394.0173,234.908 C390.8583,250.867 387.6983,266.825 384.5383,282.784 C382.8023,284.003 381.0663,285.222 379.1253,286.585 C379.0663,286.357 378.9913,285.297 378.5333,284.444 C377.3233,282.187 376.4763,279.14 374.5403,277.974 C367.7133,273.858 360.4903,270.399 353.4173,266.692 C355.2863,260.107 354.5763,253.865 351.5523,247.676 C350.5273,245.579 350.7313,242.883 350.3753,240.459 C350.1863,239.911 349.9963,239.366 349.8063,238.82 C349.6883,237.823 349.5713,236.825 349.4543,235.828 C352.7403,233.888 355.7263,234.829 358.6083,236.78 C358.6173,237.11 358.6213,237.439 358.6203,237.768 C358.7183,239.926 358.8163,242.084 358.9143,244.242 C359.5043,244.167 360.0943,244.093 360.6843,244.019 L359.6073,237.779 C360.9403,233.781 362.2723,229.784 363.6053,225.787" id="Fill-155" fill="#490E46"></path>
            <path d="M178.0023,269.5981 C177.7803,265.7171 175.8763,263.6721 172.2863,263.7601 C168.7093,263.8481 166.2593,266.2911 166.9403,269.4991 C167.3803,271.5711 170.1663,274.1351 172.3233,274.6251 C175.6823,275.3891 177.7823,272.9141 178.0023,269.5981 M164.4253,247.8091 C176.9623,247.9151 186.9063,257.4241 186.7613,269.1661 C186.6223,280.3311 175.4403,290.7111 163.4923,290.7631 C152.5943,290.8111 141.5223,279.4231 141.6893,268.3371 C141.8583,257.0471 152.2033,247.7061 164.4253,247.8091" id="Fill-157" fill="#351046"></path>
            <path d="M301.3746,275.7009 C302.1526,275.7149 302.9306,275.7279 303.7086,275.7419 C305.3166,273.6299 307.9146,271.6809 308.2946,269.3679 C308.8306,266.1049 306.2836,263.8269 302.7956,263.7699 C299.3226,263.7139 296.6776,265.7809 297.1576,269.1679 C297.4866,271.4979 299.8956,273.5339 301.3746,275.7009 M311.3076,247.7889 C323.5366,248.0059 333.6566,257.6459 333.4396,268.9869 C333.1816,282.4359 321.1866,289.9839 310.2786,290.6299 C299.2366,291.2839 288.1916,279.5589 288.3216,268.5599 C288.4596,256.9189 298.8096,247.5659 311.3076,247.7889" id="Fill-159" fill="#3F1145"></path>
            <path d="M358.6082,236.7803 C355.7272,234.8283 352.7402,233.8883 349.4542,235.8283 C349.1592,234.7243 348.7492,233.6373 348.5872,232.5153 C347.4032,224.3003 344.4652,217.7053 336.4162,213.3613 C325.9112,207.6903 322.1762,197.3143 320.6152,186.0163 C320.1852,182.9073 319.5862,179.7793 318.6562,176.7873 C315.3402,166.1223 309.4652,162.0713 298.4562,162.6643 C292.5052,162.9843 286.5592,163.3943 280.6112,163.7643 C281.2782,160.7703 281.9442,157.7773 282.6102,154.7833 C285.5142,154.1973 288.3952,153.4523 291.3242,153.0553 C299.7262,151.9173 308.1652,151.2573 315.3662,157.0113 C323.8872,163.8213 328.6262,172.8543 329.5642,183.6813 C330.4552,193.9753 334.1932,202.0493 343.9082,207.1283 C349.8162,210.2163 354.4672,214.9903 355.6022,222.2573 C356.3642,227.1353 357.5902,231.9423 358.6082,236.7803" id="Fill-161" fill="#580A44"></path>
            <path d="M171.7175,294.7457 C173.9475,301.7787 176.3155,308.6987 178.2205,315.7447 C178.5805,317.0727 177.4645,319.9697 176.4115,320.3287 C165.6185,324.0107 154.7005,327.3307 143.8045,330.7067 C143.0415,330.9437 142.1705,330.8287 140.7255,330.9137 C138.2575,323.2647 135.7215,315.5867 133.3825,307.8487 C133.1635,307.1237 133.9935,305.3937 134.6625,305.1877 C146.6735,301.4827 158.7335,297.9407 170.7875,294.3767 C170.9075,294.3417 171.0795,294.4857 171.7175,294.7457" id="Fill-163" fill="#F9072B"></path>
            <path d="M214.1573,346.7875 C217.2213,353.9865 221.1653,359.3855 226.6813,363.5205 C230.6703,366.5105 238.5363,366.3565 242.3893,363.0475 C247.7163,358.4745 253.0913,353.8625 257.7743,348.6635 C261.9023,344.0825 265.1093,338.6715 268.7223,333.6275 C268.3223,333.1625 267.9233,332.6965 267.5243,332.2315 C251.1393,341.0995 234.8413,350.2815 214.1573,346.7875 M232.6163,373.5725 C227.9633,370.4675 222.9953,368.4885 220.0183,364.8705 C214.7913,358.5185 210.7033,351.2125 206.3603,344.1695 C205.7743,343.2205 206.0543,341.1885 206.7283,340.2025 C207.1903,339.5265 209.1993,339.3325 210.2313,339.7075 C224.3813,344.8525 237.5733,341.1355 250.1853,334.9045 C258.7993,330.6475 266.8033,325.1695 275.2033,320.4555 C276.8633,319.5235 279.0823,319.5885 281.0443,319.1935 C280.7963,321.1615 281.0693,323.3975 280.2183,325.0565 C272.0813,340.9055 261.9473,355.3145 247.5873,366.1315 C243.2433,369.4035 237.7133,371.1005 232.6163,373.5725" id="Fill-165" fill="#3F1145"></path>
            <path d="M133.6753,236.3887 C136.0423,232.0677 140.0303,228.8347 144.5063,227.8487 C152.1953,226.1537 160.1933,225.2027 168.0633,225.1907 C174.8123,225.1807 181.5913,226.7707 188.2983,227.9767 C190.3083,228.3377 192.4433,229.4327 193.9603,230.8097 C197.3683,233.9017 196.5403,238.2527 192.0793,239.0837 C187.4453,239.9467 182.4893,239.9737 177.7913,239.4007 C168.8853,238.3147 160.1023,236.1967 151.1893,235.2157 C147.5413,234.8147 143.6883,236.2457 139.9313,236.8607 C138.0533,237.1687 136.1813,237.5167 134.3063,237.8467 C134.0963,237.3607 133.8853,236.8747 133.6753,236.3887" id="Fill-167" fill="#3F1145"></path>
            <path d="M333.0193,237.3182 C331.0183,237.6512 330.4653,237.9292 330.0743,237.7812 C315.9533,232.4442 302.2703,237.5892 288.4323,239.3902 C284.5193,239.9002 280.4103,240.3262 276.5943,239.6462 C274.1563,239.2122 272.0903,236.6812 269.8583,235.0902 C271.9943,232.8132 273.8183,229.0582 276.3253,228.5282 C284.8793,226.7202 293.6493,225.7482 302.3833,225.0182 C312.0433,224.2102 321.3413,225.5632 328.9483,232.4102 C330.2983,233.6262 331.3033,235.2242 333.0193,237.3182" id="Fill-169" fill="#490E46"></path>
            <path d="M282.6107,154.7834 C281.9447,157.7774 281.2777,160.7704 280.6117,163.7644 C279.6147,163.9754 278.6177,164.1864 277.6207,164.3974 C277.2497,163.9844 276.8787,163.5704 276.5067,163.1564 C276.2057,163.6494 275.9047,164.1414 275.6047,164.6334 C260.8897,165.9594 246.1937,167.5994 231.4527,168.4564 C225.4947,168.8024 219.4377,167.4374 213.4257,166.8514 C225.9187,166.8514 238.4137,166.8514 250.9077,166.8514 C250.9377,166.2874 250.9687,165.7224 250.9987,165.1584 C248.7127,165.0334 246.4087,164.6664 244.1447,164.8364 C240.3377,165.1234 238.4887,163.6154 238.6127,159.7754 C239.2817,159.4504 239.9497,159.1254 240.6177,158.8004 C249.2817,158.1164 257.9457,157.4314 266.6107,156.7474 C271.9437,156.0924 277.2777,155.4384 282.6107,154.7834" id="Fill-171" fill="#490E46"></path>
            <path d="M233.9558,286.8719 C234.4978,290.0489 233.6468,292.9049 229.1598,294.9399 C227.0358,295.9029 225.3418,300.0559 225.3688,302.7439 C225.3878,304.5849 228.7468,306.3599 230.5458,308.2279 C231.6298,309.3549 232.5848,310.6039 233.5988,311.7979 C232.0538,312.3869 230.3938,313.6719 228.9838,313.4389 C224.1188,312.6369 220.8368,309.5739 219.8818,304.6989 C218.7638,298.9869 220.6128,293.9519 225.3888,290.6819 C227.9948,288.8979 228.6038,287.0799 228.7038,284.1789 C228.7688,282.2729 230.2298,278.8409 231.1508,278.8119 C235.0528,278.6909 233.6098,282.1699 233.9448,284.4059 C234.0188,284.8949 233.9558,285.4039 233.9558,286.8719" id="Fill-173" fill="#3F1145"></path>
            <path d="M275.6042,164.6334 C275.9052,164.1414 276.2062,163.6494 276.5072,163.1564 C276.8782,163.5704 277.2492,163.9844 277.6212,164.3974 C276.9492,164.4764 276.2762,164.5544 275.6042,164.6334" id="Fill-175" fill="#580A44"></path>
            <path d="M349.806,238.8204 C349.996,239.3654 350.186,239.9114 350.375,240.4584 C350.185,239.9134 349.995,239.3674 349.806,238.8204" id="Fill-177" fill="#580A44"></path>
            <path d="M419.6205,278.7802 C417.0255,289.7802 414.4295,300.7802 411.8345,311.7802 C410.7565,314.1082 409.9705,316.6442 408.5085,318.6992 C407.3215,320.3702 405.3235,321.4642 403.6845,322.8142 C403.7125,320.7742 403.7415,318.7352 403.7695,316.6952 C404.6705,314.5352 406.1125,312.4402 406.3855,310.2032 C408.7285,291.0582 412.2685,272.1932 418.6645,253.9402 C419.0635,254.2272 419.4635,254.5142 419.8625,254.8012 C419.7815,262.7942 419.7015,270.7872 419.6205,278.7802" id="Fill-179" fill="#ECDBF5"></path>
            <path d="M418.6646,253.9405 C412.2686,272.1935 408.7286,291.0585 406.3856,310.2035 C406.1126,312.4405 404.6706,314.5345 403.7696,316.6955 C403.6816,316.0535 403.5946,315.4105 403.5066,314.7685 C403.5186,314.4435 403.5306,314.1175 403.5426,313.7905 C406.6236,297.5245 409.4756,281.2095 412.9166,265.0195 C414.0336,259.7665 416.6906,254.8415 418.6436,249.7655 C418.6506,251.1565 418.6576,252.5485 418.6646,253.9405" id="Fill-181" fill="#5B2158"></path>
            <path d="M403.4403,324.8005 L402.6503,326.8745 C402.9143,326.1825 403.1773,325.4915 403.4403,324.8005" id="Fill-183" fill="#ECDBF5"></path>
            <path d="M417.7907,244.7829 C417.9997,245.2689 418.2077,245.7549 418.4167,246.2419 C418.2077,245.7559 417.9987,245.2689 417.7907,244.7829" id="Fill-185" fill="#5B2158"></path>
            <path d="M418.5345,246.7808 C418.5865,247.1168 418.6385,247.4538 418.6905,247.7898 C418.6385,247.4538 418.5865,247.1168 418.5345,246.7808" id="Fill-187" fill="#5B2158"></path>
            <path d="M403.5426,313.791 C403.5306,314.117 403.5186,314.443 403.5066,314.769 C403.3936,314.533 403.2566,314.303 403.1886,314.055 C403.1746,314.003 403.4176,313.881 403.5426,313.791" id="Fill-189" fill="#ECDBF5"></path>
            <path d="M418.6119,334.7816 C418.6119,334.1146 418.6109,333.4476 418.6109,332.7806 C419.2779,332.7806 419.9449,332.7816 420.6129,332.7816 C419.9459,333.4486 419.2789,334.1146 418.6119,334.7816" id="Fill-191" fill="#1FC5FD"></path>
            <path d="M372.6048,106.785 C372.0688,108.619 371.5318,110.454 370.8328,112.846 C361.5418,105.202 353.0288,96.706 343.1048,90.449 C332.9968,84.077 321.5008,79.909 310.6118,74.776 C309.5408,71.601 309.4078,67.09 307.1978,65.537 C302.9558,62.557 298.5648,59.863 294.7048,56.291 C289.9938,51.932 284.7658,48.124 280.1448,43.678 C276.7478,40.409 274.5838,35.753 269.0338,35.268 C268.3618,35.21 267.9478,33.617 267.1718,33.094 C263.3478,30.521 263.0228,23.632 256.3828,24.35 C255.9268,24.4 255.2078,22.024 254.6118,20.775 C283.6478,27.542 305.5718,43.105 316.4898,71.907 C321.7068,68.163 321.6958,67.915 316.1198,47.44 C323.0028,46.575 333.5878,55.77 335.3998,64.03 C336.1898,67.633 335.6368,71.512 336.0078,75.235 C336.1378,76.539 336.8868,78.215 337.9068,78.917 C341.4508,81.358 345.6508,82.978 348.8308,85.784 C352.8698,89.348 356.1568,93.764 360.1778,98.272 C365.5168,94.805 365.5158,88.18 367.0708,82.335 C372.2818,84.7 372.6678,86.433 372.6048,106.785" id="Fill-193" fill="#8C1850"></path>
            <path d="M254.6116,20.7755 C255.2086,22.0235 255.9266,24.3995 256.3826,24.3505 C263.0226,23.6325 263.3476,30.5215 267.1716,33.0945 C267.9476,33.6165 268.3616,35.2095 269.0336,35.2685 C274.5836,35.7535 276.7476,40.4095 280.1446,43.6775 C284.7656,48.1235 289.9936,51.9325 294.7046,56.2915 C298.5646,59.8625 302.9556,62.5575 307.1976,65.5375 C309.4076,67.0905 309.5406,71.6015 310.6116,74.7765 C302.9416,72.7865 295.2716,70.7975 287.6016,68.8075 C282.9316,67.8105 278.2606,66.8145 273.5906,65.8165 C274.8356,62.7645 274.5096,60.2225 271.8206,57.8895 C264.4056,51.4575 257.1916,44.7955 249.7846,38.3535 C247.4606,36.3315 244.6066,34.9175 242.2966,32.8825 C237.6166,28.7605 233.0856,24.4625 228.6216,20.1065 C227.3866,18.9025 226.6026,17.2365 225.6116,15.7815 C233.9436,16.7815 242.2746,17.7805 250.6056,18.7805 C251.9406,19.4455 253.2766,20.1105 254.6116,20.7755" id="Fill-195" fill="#841951"></path>
            <path d="M259.1187,17.3522 C260.0437,17.2332 260.9697,17.1142 261.8947,16.9952 C261.9527,17.4002 262.0107,17.8052 262.0687,18.2112 C261.1337,18.2982 260.1987,18.3862 259.2637,18.4732 L259.1187,17.3522 Z" id="Fill-197" fill="#740944"></path>
            <path d="M273.5903,65.8172 C278.2613,66.8142 282.9313,67.8112 287.6013,68.8082 C288.2193,70.8732 288.8373,72.9382 289.7813,76.0902 C286.9993,76.4302 283.6633,76.8362 280.3283,77.2422 C280.3003,77.5822 280.2723,77.9212 280.2443,78.2602 L300.9993,78.2602 C299.4273,80.2422 298.7713,81.0692 298.6173,81.2642 C301.9623,83.0782 305.2843,84.8792 308.6063,86.6802 C297.4273,84.0342 286.1713,81.6692 275.0943,78.6512 C266.9633,76.4362 258.5693,78.0852 250.4873,76.1622 C249.0253,75.7012 247.5723,74.8832 246.0983,74.8432 C240.2783,74.6842 234.4503,74.7702 228.6253,74.7642 C227.9903,73.1752 227.3183,71.6002 226.7303,69.9932 C225.9843,67.9522 225.3073,65.8852 224.6013,63.8282 C228.9393,63.8132 233.2773,63.7982 237.6163,63.7832 C249.6073,64.4612 261.5993,65.1392 273.5903,65.8172" id="Fill-199" fill="#6A0842"></path>
            <path d="M389.2086,139.9278 L393.8746,149.7658 C393.3406,150.0198 392.8056,150.2728 392.2716,150.5258 C390.7556,147.2278 389.2386,143.9288 387.7226,140.6308 C388.2176,140.3968 388.7136,140.1618 389.2086,139.9278" id="Fill-201" fill="#841951"></path>
            <path d="M282.6107,154.7834 C277.2777,155.4384 271.9437,156.0924 266.6107,156.7474 C265.2557,155.3134 263.9007,153.8794 263.0237,152.9504 C263.9627,150.8244 264.6737,149.2164 265.3837,147.6074 C263.6737,147.2974 261.9737,146.8124 260.2527,146.7174 C257.5187,146.5664 254.7697,146.6774 251.2707,146.6774 C253.2947,144.0974 254.4067,142.6794 255.5197,141.2614 C253.6847,140.1154 251.9007,138.8774 249.9987,137.8564 C248.6987,137.1584 247.2357,136.7654 246.4157,136.4524 C247.5927,134.3594 248.4357,132.8604 249.2797,131.3604 C247.6887,131.1114 246.1067,130.7624 244.5057,130.6354 C241.9397,130.4334 239.3617,130.3774 236.7877,130.2604 C236.1887,130.0914 235.5887,129.9234 234.9897,129.7544 C241.8557,126.3024 239.7887,124.4514 235.8537,122.2134 C232.3007,120.1924 229.2177,117.3534 225.8897,114.9264 C220.7577,111.1844 220.6067,110.4614 224.3027,105.6584 C223.3957,105.0264 222.4957,104.3994 221.5957,103.7724 C224.9297,103.4404 228.2647,103.1074 231.5987,102.7744 C239.7127,103.1144 247.8367,103.2944 255.9347,103.8554 C260.5137,104.1724 265.0497,105.1134 269.6047,105.7744 C271.6677,108.8054 273.3547,112.2064 275.8797,114.7864 C280.0787,119.0794 284.5647,123.1904 289.4047,126.7284 C293.5047,129.7244 297.2207,132.7184 299.2397,137.5394 C299.5377,138.2514 301.2307,138.3534 302.2527,138.7954 C303.4297,139.3044 304.7627,139.6604 305.7077,140.4604 C309.1197,143.3494 312.4167,146.3754 315.7187,149.3914 C317.6237,151.1324 319.3377,153.1004 321.3457,154.7074 C326.5517,158.8764 332.1897,162.5594 337.0647,167.0734 C342.8367,172.4174 346.9417,179.5704 354.8667,182.5334 C356.4007,183.1074 357.3997,185.0014 358.7817,186.1174 C362.0127,188.7244 365.3277,191.2294 368.6077,193.7764 C368.6137,195.4444 368.6197,197.1124 368.6267,198.7814 C369.8327,208.3184 367.5397,217.2054 363.6057,225.7874 C362.2727,229.7844 360.9397,233.7814 359.6077,237.7784 C359.2787,237.7844 358.9497,237.7804 358.6207,237.7684 C358.6207,237.4394 358.6167,237.1094 358.6087,236.7804 C357.5897,231.9414 356.3637,227.1354 355.6017,222.2574 C354.4667,214.9894 349.8157,210.2164 343.9087,207.1284 C334.1927,202.0494 330.4557,193.9754 329.5637,183.6814 C328.6267,172.8544 323.8877,163.8214 315.3657,157.0114 C308.1657,151.2574 299.7257,151.9174 291.3247,153.0554 C288.3957,153.4524 285.5137,154.1974 282.6107,154.7834" id="Fill-203" fill="#671D55"></path>
            <path d="M368.6263,198.7811 C368.6203,197.1131 368.6143,195.4441 368.6083,193.7761 C366.6033,185.7751 364.5993,177.7751 362.5953,169.7741 C350.2453,140.6991 328.5793,122.0791 298.6173,112.7711 C289.2803,110.4291 279.9433,108.0881 270.6063,105.7461 C269.4423,101.4311 265.4903,100.6581 262.3463,100.9781 C255.6543,101.6581 254.1023,96.0431 250.5943,92.7861 C250.6123,92.4991 250.6273,92.2121 250.6373,91.9251 C257.0803,92.8141 263.5233,93.7041 269.9653,94.5921 C276.2473,95.4591 282.5293,96.3241 288.8113,97.1901 C290.4483,97.7061 292.0853,98.2221 293.7223,98.7381 C294.0373,98.6811 294.3303,98.7371 294.6013,98.9091 C295.1303,100.1471 295.6593,101.3861 296.1703,102.5841 C298.0043,101.8381 299.3123,101.3061 300.6213,100.7731 L300.6183,100.7721 C302.6133,101.4411 304.6083,102.1101 306.6023,102.7791 C345.9483,117.1331 370.9013,144.1991 379.5353,185.5711 C380.5103,190.2411 380.8033,195.0531 381.4123,199.7981 C380.1873,200.1831 378.8913,201.0351 377.7493,200.8641 C374.6733,200.4021 371.6633,199.5051 368.6263,198.7811" id="Fill-205" fill="#6A0842"></path>
            <path d="M419.6205,278.7802 C419.7015,270.7872 419.7815,262.7942 419.8625,254.8012 C420.1115,262.7882 420.3605,270.7742 420.6095,278.7612 C420.2805,278.7782 419.9505,278.7842 419.6205,278.7802" id="Fill-207" fill="#5B2158"></path>
            <path d="M390.9227,210.707 C390.7127,210.422 390.7187,210.141 390.9417,209.866 C391.0297,210.066 391.1427,210.26 391.1907,210.469 C391.2037,210.525 391.0177,210.627 390.9227,210.707" id="Fill-209" fill="#6A0842"></path>
            <path d="M418.235,316.0587 C417.953,316.1677 417.604,316.4287 417.41,316.3417 C417.214,316.2537 417.171,315.8227 417.061,315.5417 C417.342,315.4327 417.691,315.1727 417.886,315.2587 C418.082,315.3447 418.125,315.7767 418.235,316.0587" id="Fill-211" fill="#3F1145"></path>
            <path d="M389.9368,189.7369 C389.8158,188.1279 389.6948,186.5179 389.5738,184.9089 C389.5248,184.3159 389.4768,183.7229 389.4278,183.1299 C389.2598,183.0239 389.1708,182.8729 389.1558,182.6749 C390.3048,184.0449 391.4578,185.4139 392.6108,186.7829 L392.6128,186.7809 C391.7208,187.7659 390.8288,188.7519 389.9368,189.7369" id="Fill-213" fill="#580A44"></path>
            <path d="M392.6107,186.7824 C393.3897,188.0434 394.1677,189.3044 394.9467,190.5654 C394.3297,190.8224 393.7127,191.0794 393.0957,191.3364 C392.9347,189.8174 392.7737,188.2994 392.6127,186.7804 L392.6107,186.7824 Z" id="Fill-215" fill="#580A44"></path>
            <path d="M148.6131,78.7986 C148.8451,73.3746 143.7141,74.2446 140.9991,72.9956 C136.4611,70.9066 135.3141,68.1676 136.6071,63.7736 C138.4621,63.2536 140.3171,62.7326 142.1721,62.2126 C129.0441,59.7816 116.2261,60.4426 102.9591,63.8386 C105.8411,60.8176 108.7221,57.7956 111.6031,54.7746 C121.7381,48.0746 132.9201,43.8466 144.5971,40.7886 C146.2731,40.4616 147.9481,40.1336 149.6231,39.8056 C149.9491,39.8046 150.2761,39.8046 150.6031,39.8036 C151.2701,39.7986 151.9371,39.7936 152.6041,39.7886 C152.8571,40.7176 152.8221,41.9286 153.4101,42.5306 C158.1321,47.3726 162.9011,52.1736 167.8071,56.8286 C169.9441,58.8556 172.1911,61.1116 174.8281,62.1826 C178.1171,63.5186 179.6001,65.4366 179.6161,68.7916 C176.6131,69.7946 173.6101,70.7976 170.6081,71.8016 C163.2761,74.1336 155.9451,76.4666 148.6131,78.7986" id="Fill-217" fill="#5B2158"></path>
            <path d="M179.6163,68.7916 C179.6003,65.4366 178.1173,63.5186 174.8273,62.1826 C172.1913,61.1116 169.9443,58.8556 167.8073,56.8286 C162.9013,52.1736 158.1313,47.3726 153.4103,42.5306 C152.8223,41.9286 152.8573,40.7176 152.6043,39.7886 C156.3073,39.1206 159.9863,38.1246 163.7183,37.8526 C171.4453,37.2896 179.2013,37.1396 186.9413,36.7366 C187.8473,36.6896 188.7253,36.1166 189.6163,35.7876 C192.6323,40.3016 195.2233,45.1926 198.7893,49.2206 C202.0143,52.8636 205.9233,56.3796 210.2543,58.3956 C213.1733,59.7546 214.6183,60.7976 214.6163,63.8236 C202.9493,65.4796 191.2833,67.1356 179.6163,68.7916" id="Fill-219" fill="#671D55"></path>
            <path d="M214.6163,63.8232 C214.6183,60.7982 213.1733,59.7542 210.2543,58.3962 C205.9233,56.3802 202.0143,52.8632 198.7893,49.2202 C195.2233,45.1922 192.6323,40.3022 189.6163,35.7872 C183.2523,33.4512 176.9003,31.0842 170.5183,28.7982 C168.7373,28.1592 166.8703,27.7592 164.5733,27.1182 C166.5473,25.4282 168.0833,24.1122 169.6203,22.7962 C173.6893,21.7242 177.7493,20.6132 181.8323,19.6002 C183.3983,19.2122 185.0193,19.0472 186.6153,18.7802 C187.3893,19.4572 188.1203,20.1922 188.9473,20.7982 C191.6683,22.7942 194.4563,24.6992 197.1553,26.7232 C199.2643,28.3032 201.3053,29.9762 203.3293,31.6662 C206.0983,33.9782 208.8563,36.3082 211.5533,38.7042 C213.0243,40.0102 214.2593,41.5912 215.7743,42.8372 C222.1963,48.1202 228.7753,53.2182 235.0723,58.6452 C236.4053,59.7942 236.7933,62.0412 237.6163,63.7832 C233.2773,63.7982 228.9393,63.8132 224.6013,63.8282 C221.2733,63.8262 217.9443,63.8242 214.6163,63.8232" id="Fill-221" fill="#711D54"></path>
            <path d="M150.6026,39.8038 C150.2756,39.8048 149.9496,39.8048 149.6226,39.8058 C149.9496,39.7938 150.2756,39.7928 150.6026,39.8038" id="Fill-223" fill="#671D55"></path>
            <path d="M237.6162,63.7828 C236.7932,62.0418 236.4062,59.7938 235.0722,58.6448 C228.7752,53.2178 222.1962,48.1208 215.7742,42.8368 C214.2592,41.5908 213.0242,40.0108 211.5532,38.7038 C208.8562,36.3088 206.0982,33.9788 203.3292,31.6658 C201.3062,29.9768 199.2642,28.3038 197.1562,26.7228 C194.4562,24.6988 191.6682,22.7938 188.9472,20.7988 C188.1202,20.1928 187.3892,19.4568 186.6152,18.7808 C192.2242,17.7808 197.8362,16.7968 203.4402,15.7708 C204.8462,15.5138 206.2272,15.1268 207.6202,14.7998 C213.6172,15.1268 219.6152,15.4548 225.6122,15.7818 C226.6022,17.2358 227.3872,18.9018 228.6212,20.1068 C233.0862,24.4628 237.6172,28.7598 242.2972,32.8828 C244.6072,34.9168 247.4612,36.3318 249.7852,38.3528 C257.1912,44.7948 264.4052,51.4578 271.8202,57.8898 C274.5092,60.2228 274.8362,62.7648 273.5902,65.8168 C261.5992,65.1388 249.6072,64.4608 237.6162,63.7828" id="Fill-225" fill="#7B1C52"></path>
            <path d="M171.7906,16.7945 C172.3256,17.0595 172.7156,17.2535 173.1056,17.4465 C172.7736,17.8445 172.4986,18.3405 172.0786,18.5875 C171.9316,18.6735 171.2486,18.2035 171.1396,17.8775 C171.0596,17.6385 171.5166,17.2195 171.7906,16.7945" id="Fill-227" fill="#580A44"></path>
            <path d="M214.6163,63.8232 C217.9443,63.8242 221.2733,63.8262 224.6013,63.8282 C225.3073,65.8852 225.9843,67.9522 226.7303,69.9942 C227.3183,71.6002 227.9903,73.1752 228.6253,74.7642 C225.3323,74.7722 222.0393,74.7802 218.7463,74.7872 C218.8233,75.1772 218.9003,75.5682 218.9783,75.9582 C215.0433,76.2542 211.1073,76.5512 207.1713,76.8482 C198.0083,77.4932 188.8453,78.1322 179.6843,78.7842 C172.7773,79.2762 172.7783,79.2842 170.6073,71.8012 C173.6103,70.7982 176.6133,69.7942 179.6163,68.7912 C191.2833,67.1352 202.9493,65.4792 214.6163,63.8232" id="Fill-229" fill="#580A44"></path>
            <path d="M170.6078,71.8013 C172.7788,79.2843 172.7778,79.2763 179.6838,78.7843 C188.8458,78.1323 198.0078,77.4933 207.1718,76.8483 C195.6788,79.1053 184.1048,81.0283 172.7218,83.7473 C165.8628,85.3863 159.2998,88.2643 152.6048,90.5853 C150.2628,87.6423 147.9208,84.6993 145.5788,81.7563 C146.5898,80.7703 147.6018,79.7843 148.6128,78.7983 C155.9448,76.4663 163.2758,74.1333 170.6078,71.8013" id="Fill-231" fill="#490E46"></path>
            <path d="M250.5944,92.7858 C254.1024,96.0428 255.6544,101.6588 262.3464,100.9778 C265.4904,100.6578 269.4414,101.4308 270.6064,105.7468 C270.2724,105.7558 269.9384,105.7648 269.6044,105.7738 C265.0494,105.1138 260.5134,104.1718 255.9344,103.8548 C247.8364,103.2948 239.7124,103.1148 231.5994,102.7748 C233.6134,101.0648 235.6274,99.3548 238.2454,97.1318 C236.4594,97.0088 234.8424,96.9418 233.2364,96.7798 C226.4404,96.0918 219.6354,95.4748 212.8644,94.5938 C211.3544,94.3978 209.9694,93.2418 208.5274,92.5268 C211.5614,92.3198 214.5954,92.1128 217.6294,91.9058 C218.8974,95.1578 221.2224,95.2488 224.1084,94.2558 C226.0584,93.5838 228.1194,92.8988 230.1464,92.8468 C236.9584,92.6748 243.7784,92.7838 250.5944,92.7858" id="Fill-233" fill="#580A44"></path>
            <path d="M250.5944,92.7858 C243.7784,92.7838 236.9584,92.6748 230.1464,92.8468 C228.1194,92.8988 226.0584,93.5838 224.1084,94.2558 C221.2224,95.2488 218.8974,95.1578 217.6294,91.9058 C228.6314,91.9118 239.6344,91.9188 250.6374,91.9258 C250.6274,92.2128 250.6124,92.4988 250.5944,92.7858" id="Fill-235" fill="#490E46"></path>
            <path d="M218.9779,75.9582 C218.9009,75.5682 218.8229,75.1772 218.7459,74.7872 C222.0389,74.7802 225.3319,74.7722 228.6249,74.7652 C234.4509,74.7702 240.2779,74.6842 246.0989,74.8432 C247.5729,74.8832 249.0259,75.7012 250.4869,76.1622 C239.9839,76.0942 229.4809,76.0262 218.9779,75.9582" id="Fill-237" fill="#490E46"></path>
            <path d="M300.6213,100.7734 C299.3123,101.3054 298.0043,101.8374 296.1703,102.5834 C295.6593,101.3864 295.1303,100.1474 294.6013,98.9084 C296.6083,99.5304 298.6143,100.1514 300.6213,100.7734" id="Fill-239" fill="#671D55"></path>
            <path d="M306.6027,102.7795 C304.6077,102.1105 302.6127,101.4415 300.6177,100.7725 L306.6027,102.7795 Z" id="Fill-241" fill="#671D55"></path>
            <path d="M293.7226,98.7384 C292.0856,98.2224 290.4486,97.7064 288.8116,97.1904 C290.4486,97.7064 292.0856,98.2224 293.7226,98.7384" id="Fill-243" fill="#671D55"></path>
            <path d="M389.4281,183.1301 C389.4771,183.7231 389.5251,184.3161 389.5741,184.9091 C389.5251,184.3161 389.4771,183.7231 389.4281,183.1301" id="Fill-245" fill="#6A0842"></path>
            <path d="M203.5933,93.0391 C203.2793,93.0511 202.9643,93.0631 202.6503,93.0761 C202.9573,92.8721 203.2713,92.8601 203.5933,93.0391" id="Fill-247" fill="#580A44"></path>
            <path d="M221.5952,103.7727 C222.4952,104.3997 223.3962,105.0267 224.3032,105.6577 C220.6062,110.4607 220.7582,111.1837 225.8902,114.9267 C229.2182,117.3537 232.3012,120.1927 235.8542,122.2137 C239.7892,124.4517 241.8552,126.3027 234.9892,129.7547 C235.5892,129.9227 236.1882,130.0917 236.7882,130.2597 C239.3612,130.3777 241.9392,130.4327 244.5062,130.6357 C246.1062,130.7627 247.6892,131.1117 249.2792,131.3607 C248.4362,132.8597 247.5922,134.3597 246.4152,136.4527 C247.2362,136.7647 248.6992,137.1587 249.9992,137.8567 C251.9002,138.8777 253.6852,140.1157 255.5192,141.2617 C254.4072,142.6797 253.2942,144.0977 251.2702,146.6767 C254.7702,146.6767 257.5182,146.5667 260.2522,146.7177 C261.9742,146.8117 263.6742,147.2967 265.3842,147.6067 C264.6732,149.2157 263.9622,150.8247 263.0242,152.9507 C263.9012,153.8787 265.2562,155.3137 266.6102,156.7477 C257.9462,157.4317 249.2822,158.1157 240.6172,158.7997 C237.7692,155.6397 235.9892,155.9117 234.6032,159.7197 C233.6092,159.7167 232.6152,159.7147 231.6212,159.7117 C229.6662,157.7617 227.7032,155.8207 225.7592,153.8607 C224.2962,152.3877 222.6702,151.0297 221.4432,149.3777 C217.6902,144.3227 213.9432,139.6547 207.7062,136.9997 C204.2802,135.5407 202.1252,131.2987 199.0942,128.6607 C194.8012,124.9237 190.0772,121.6797 185.8312,117.8957 C183.1482,115.5047 181.0012,112.5127 178.6142,109.7907 C188.1532,107.9977 197.6852,106.1717 207.2342,104.4397 C209.3302,104.0587 211.4862,104.0097 213.6142,103.8077 C214.8762,104.7267 216.1392,105.6457 217.4022,106.5647 L218.6192,103.7887 L221.5952,103.7727 Z" id="Fill-249" fill="#5B2158"></path>
            <path d="M218.6192,103.7886 L217.4022,106.5646 C216.1392,105.6456 214.8762,104.7266 213.6142,103.8086 C215.2822,103.8016 216.9512,103.7956 218.6192,103.7886" id="Fill-251" fill="#671D55"></path>
            <path d="M234.6028,159.7194 C235.9898,155.9114 237.7688,155.6394 240.6178,158.8004 C239.9498,159.1254 239.2808,159.4504 238.6128,159.7754 C237.2768,159.7564 235.9398,159.7384 234.6028,159.7194" id="Fill-253" fill="#522258"></path>
            <path d="M358.6205,237.7684 C358.9495,237.7804 359.2785,237.7844 359.6075,237.7784 C359.9665,239.8584 360.3255,241.9384 360.6845,244.0184 C360.0945,244.0934 359.5035,244.1674 358.9135,244.2414 C358.8165,242.0834 358.7185,239.9264 358.6205,237.7684" id="Fill-255" fill="#580A44"></path>
            <path d="M178.0023,269.5981 C177.7823,272.9141 175.6823,275.3891 172.3233,274.6251 C170.1663,274.1351 167.3803,271.5711 166.9403,269.4991 C166.2593,266.2911 168.7093,263.8481 172.2863,263.7601 C175.8763,263.6721 177.7803,265.7171 178.0023,269.5981" id="Fill-257" fill="#ECDBF5"></path>
            <path d="M301.3746,275.7009 C299.8956,273.5339 297.4866,271.4979 297.1576,269.1679 C296.6776,265.7809 299.3226,263.7139 302.7956,263.7699 C306.2836,263.8269 308.8306,266.1049 308.2946,269.3679 C307.9146,271.6809 305.3166,273.6299 303.7086,275.7419 C302.9306,275.7279 302.1526,275.7149 301.3746,275.7009" id="Fill-259" fill="#ECDBF5"></path>
            <path d="M214.1573,346.7875 C234.8413,350.2815 251.1393,341.0995 267.5243,332.2315 C267.9233,332.6965 268.3223,333.1625 268.7223,333.6275 C265.1093,338.6715 261.9023,344.0825 257.7743,348.6635 C253.0913,353.8625 247.7163,358.4745 242.3893,363.0475 C238.5363,366.3565 230.6703,366.5105 226.6813,363.5205 C221.1653,359.3855 217.2213,353.9865 214.1573,346.7875" id="Fill-261" fill="#F64758"></path>
            <path d="M269.6046,105.7739 C269.9386,105.7649 270.2726,105.7559 270.6066,105.7469 C279.9426,108.0879 289.2796,110.4289 298.6166,112.7709 C297.9366,116.7569 299.7716,118.7509 303.2446,120.8429 C308.2206,123.8399 312.6876,127.8249 316.9466,131.8389 C323.2526,137.7809 327.7996,145.6389 336.2636,149.2189 C337.1016,149.5729 337.6076,150.6519 338.3556,151.2909 C345.3056,157.2289 352.2416,163.1849 359.2826,169.0129 C360.0626,169.6579 361.4756,169.5389 362.5946,169.7739 C364.5996,177.7749 366.6036,185.7759 368.6076,193.7759 C365.3276,191.2299 362.0136,188.7249 358.7816,186.1169 C357.3996,185.0009 356.4006,183.1069 354.8666,182.5339 C346.9416,179.5709 342.8366,172.4169 337.0646,167.0729 C332.1896,162.5589 326.5516,158.8759 321.3456,154.7079 C319.3386,153.1009 317.6236,151.1319 315.7186,149.3919 C312.4166,146.3759 309.1196,143.3489 305.7086,140.4609 C304.7626,139.6609 303.4306,139.3039 302.2536,138.7959 C301.2306,138.3539 299.5386,138.2519 299.2396,137.5389 C297.2206,132.7179 293.5046,129.7239 289.4056,126.7279 C284.5646,123.1899 280.0796,119.0789 275.8796,114.7869 C273.3546,112.2059 271.6676,108.8059 269.6046,105.7739" id="Fill-263" fill="#711D54"></path>
            <path d="M362.595,169.7742 C361.476,169.5392 360.063,169.6582 359.283,169.0122 C352.241,163.1842 345.305,157.2292 338.356,151.2902 C337.608,150.6512 337.102,149.5732 336.264,149.2182 C327.799,145.6392 323.252,137.7812 316.947,131.8392 C312.687,127.8252 308.221,123.8402 303.244,120.8422 C299.771,118.7512 297.937,116.7572 298.617,112.7712 C328.579,122.0792 350.245,140.6992 362.595,169.7742" id="Fill-265" fill="#7B1C52"></path>
        </g>
    </g>
</svg>